<svg version="1.1" width="351" height="319" id="svg1429" xmlns="http://www.w3.org/2000/svg"><g id="g2815" display="inline" fill="#fff" fill-opacity="1" stroke-width="1" stroke-dasharray="none" stroke="#000" stroke-opacity="1"><path id="path2274" d="M176.186.297c-.598.013-1.305.207-2.207.851-1.445 1.032-3.39 3.213-4.745 4.245-1.354 1.03-2.12.911-2.238 6.097-.118 5.186.412 15.676.383 20.479-.03 4.802-.619 3.917-1.326-.207-.708-4.125-1.532-11.49-2.15-15.586-.62-4.096-1.033-4.92-2.624-4.744-1.59.176-4.36 1.354-6.334 1.826-1.973.471-3.152.237-3.742 3.537-.59 3.3-.589 10.134-.853 13.375-.265 3.24-.797 2.889-1.18.385-.384-2.504-.618-7.16-.766-9.871-.147-2.711-.206-3.476-2.857-3.182-2.651.294-7.897 1.648-10.873 2.975-2.976 1.326-3.682 2.622-3.711 5.834-.03 3.211.618 8.338 1.148 11.285.53 2.946.943 3.713 1.178 6.865s.295 8.691-.03 12.256c-.323 3.565-1.03 5.154-1.767 5.803-.736.648-1.5.355-2.472-.381-.973-.737-2.153-1.917-2.801-1.18-.649.737-.767 3.389.03 6.836.795 3.447 2.503 7.689 3.21 11.254.707 3.565.413 6.453-.53 8.25-.942 1.797-2.533 2.503-3.917 2.533-1.385.03-2.564-.618-4.125-2.297-1.562-1.679-3.507-4.39-4.686-6.305-1.179-1.915-1.591-3.034-2.416-3.683-.824-.649-2.061-.825-3.24-.62-1.179.207-2.297.796-2.887 2.712-.59 1.915-.648 5.156.03 8.986.677 3.83 2.09 8.249 3.681 12.58 1.591 4.331 3.36 8.575 4.45 11.639 1.09 3.064 1.503 4.949 1.65 7.424.147 2.474.028 5.54-.502 7.484s-1.472 2.769-3.033 3.21c-1.561.443-3.742.5-6.717-.472-2.976-.972-6.748-2.974-9.164-5.92-2.417-2.946-3.478-6.835-3.95-9.369-.471-2.534-.353-3.712 0-3.83.354-.118.944.825 2.211 1.502 1.268.677 3.212 1.089 4.213.883 1.001-.206 1.06-1.03.354-1.885-.707-.854-2.18-1.739-3.182-2.71-1.002-.973-1.532-2.032-1.06-2.563.471-.531 1.944-.532 3.123-.502 1.178.03 2.063.087 1.592-.973-.472-1.06-2.3-3.24-3.184-4.596-.884-1.355-.826-1.885-1.326-2.533-.5-.648-1.56-1.414-2.06-2.18-.502-.766-.445-1.532.321-1.974.767-.443 2.24-.56 2.977-.62.736-.058-3.33-4.125-3.684-5.185-.353-1.06-1.06-3.18-1.56-4.476-.5-1.297-.796-1.768-1.65-1.239-.855.53-2.27 2.062-2.77 3.801-.5 1.739-.088 3.683-.205 4.537-.117.854-.766.619-1.297 1.414-.531.796-.945 2.622-1.799 4.035-.854 1.414-2.15 2.417-1.885 3.006.266.59 2.093.766 2.682 1.385s-.06 1.68-1.15 3.035c-1.09 1.355-2.622 3.005-4.035 3.977-1.414.972-2.712 1.267-3.33 1.945-.62.678-.56 1.738 1.413 1.943 1.975.206 5.864-.441 7.956.856 2.091 1.297 2.387 4.537 1.945 7.336-.442 2.798-1.62 5.155-3.123 7.07-1.503 1.915-3.33 3.39-8.426 4.303-5.097.913-13.464 1.266-19.15.736-5.687-.53-8.692-1.945-9.842-4.037-1.15-2.092-.443-4.86.47-7.807.914-2.946 2.033-6.07 4.92-11.697 2.888-5.627 7.543-13.758 10.225-17.795 2.682-4.036 3.39-3.979 4.096-4.597.706-.619 1.414-1.915 2.445-3.623 1.031-1.71 2.386-3.83 3.86-5.627 1.473-1.798 3.064-3.272 4.714-4.715 1.65-1.444 3.36-2.858 5.215-4.537 1.856-1.68 3.859-3.625 6.805-6.1a154.823 154.823 0 0110.52-8.043c3.682-2.563 7.157-4.685 10.693-6.57 3.535-1.886 7.13-3.536 10.724-5.186l2.653.178s-3.36-14.85-4.067-14.467c-.707.383-2.12 1.15-5.656 2.74-3.535 1.591-9.192 4.008-13.287 6.188-4.096 2.18-6.63 4.123-10.873 7.512-4.243 3.388-10.193 8.221-13.729 10.814-3.535 2.593-4.654 2.945-5.539 3.623-.884.678-1.533 1.68-2.859 2.918-1.326 1.237-3.327 2.709-5.154 4.83-1.827 2.122-3.479 4.892-4.657 6.1-1.177 1.208-1.884.855-2.591 1.68-.708.824-1.416 2.828-2.506 4.507-1.09 1.68-2.563 3.035-3.623 4.774-1.061 1.738-1.71 3.86-3.801 8.308-2.092 4.449-5.628 11.224-8.191 16.852-2.564 5.627-4.154 10.107-5.303 13.555-1.15 3.447-1.857 5.862-.03 7.689 1.828 1.826 6.19 3.062 8.752 4.064 2.564 1.003 3.329 1.769 3.711 3.39.383 1.62.383 4.096-2.062 12.61-2.446 8.515-7.336 23.068-10.193 31.2-2.858 8.131-3.685 9.84-1.592 10.783 2.092.943 7.102 1.12 10.224.531 3.123-.59 4.36-1.945 5.303-4.508.943-2.563 1.59-6.334 2.857-10.105a37.857 37.857 0 015.922-11.137c2.77-3.595 6.424-7.013 9.813-9.43 3.388-2.415 6.511-3.83 10.371-4.507 3.86-.678 8.456-.619 11.697-.147 3.241.472 5.127 1.356 6.924 2.565 1.797 1.208 3.506 2.739 4.36 3.976.853 1.238.853 2.18 1.767 2.121.913-.06 2.74-1.119 4.508-2.504 1.767-1.384 3.477-3.094 5.451-4.332 1.974-1.237 4.212-2.004 7.482-2.357 3.27-.354 7.574-.293 10.815.002 3.24.295 5.42.823 6.539-.502 1.119-1.326 1.178-4.508 1.885-7.602.707-3.093 2.063-6.099 3.92-8.574 1.856-2.475 4.212-4.42 6.629-5.922 2.416-1.502 4.89-2.563 7.542-3.123s5.48-.617 9.104-.234c3.624.383 8.043 1.207 12.139 1.885 4.095.677 7.866 1.207 12.109 1.502 4.243.294 8.958.354 13.023.265 4.066-.088 7.484-.324 10.047 0 2.564.325 4.272 1.208 5.037 2.711.766 1.503.588 3.625-.119 5.834-.707 2.21-1.944 4.507-2.945 5.656-1.001 1.15-1.767 1.15-3.094 2.358-1.326 1.208-3.21 3.623-5.715 4.595-2.503.973-5.627.502-7.925.149-2.298-.354-3.77-.59-6.04 5.744-2.269 6.335-5.335 19.24-6.867 26.842s-1.531 9.9-1.767 11.373c-.236 1.473-.707 2.12-.5 2.709.207.59 1.09 1.12 1.709 2.299.618 1.178.972 3.006.412 4.478-.56 1.473-2.033 2.593-6.953 3.182-4.92.59-13.287.647-17.942.353-4.655-.294-5.598-.943-6.1-2.033-.5-1.09-.56-2.622-.206-4.183.353-1.562 1.12-3.152 1.828-3.918.708-.767 1.355-.71 1.885-2.565.53-1.856.943-5.625 2.357-13.139 1.414-7.513 3.83-18.768 5.244-25.486 1.414-6.717 1.825-8.897.559-9.664-1.267-.766-4.213-.118-6.63 1.002a16.185 16.185 0 00-5.685 4.39c-1.385 1.68-2.269 3.448-3.476 4.891-1.208 1.444-2.74 2.562-3.684 4.389-.943 1.827-1.297 4.361-2.299 6.836-1.001 2.474-2.65 4.891-2.767 8.191-.118 3.3 1.295 7.484 1.265 11.52-.03 4.036-1.502 7.925-2.591 9.781-1.09 1.856-1.797 1.68-2.446 2.299-.649.619-1.237 2.034-2.77 3.389-1.531 1.355-4.006 2.649-7.777 3.504-3.77.854-8.84 1.268-13.023 1.033-4.184-.236-7.484-1.12-10.047-2.18-2.563-1.06-4.388-2.299-5.508-2.977-1.12-.677-1.533-.796-3.213-.177-1.68.618-4.626 1.974-7.16 3.006-2.533 1.03-4.654 1.737-7.836 2.267-3.182.53-7.425.885-11.078.56-3.653-.323-6.716-1.325-8.484-2.179-1.768-.854-2.24-1.561-3.242-2.062-1.002-.502-2.534-.796-4.715.972s-5.008 5.596-7.836 7.6c-2.828 2.003-5.658 2.18-7.897 1.974-2.239-.206-3.887-.795-3.623 1.975.265 2.77 2.444 8.899 3.416 12.67.972 3.771.736 5.185 1.12 5.685.383.5 1.386.088 2.859 2.15 1.473 2.064 3.417 6.602 6.275 11.788 2.858 5.185 6.629 11.017 9.84 15.23 3.212 4.213 5.864 6.806 8.898 9.752 3.035 2.947 6.452 6.248 8.16 8.37 1.709 2.12 1.71 3.062 2.624 3.828.914.765 2.742 1.356 6.984 4.007 4.243 2.652 10.9 7.366 16.645 10.784 5.745 3.417 10.578 5.54 13.966 6.836 3.389 1.296 5.333 1.767 7.13.117 1.796-1.65 3.446-5.421 3.388-7.719-.058-2.298-1.827-3.124-4.154-3.95-2.328-.824-5.214-1.648-6.983-1.56-1.768.089-2.417 1.09-3.36 1.532-.941.441-2.18.323-3.417-.325-1.238-.647-2.475-1.826-3.418-3.564-.943-1.738-1.59-4.035-3.977-6.51-2.386-2.475-6.51-5.127-8.691-6.894-2.18-1.768-2.416-2.653-3.152-3.33-.736-.678-1.974-1.15-3.918-2.711-1.945-1.562-4.597-4.213-6.012-5.952-1.415-1.738-1.592-2.563-2.387-3.388-.795-.825-2.208-1.65-3.004-2.621-.796-.972-.974-2.092-1.386-2.623-.412-.531-1.06-.472-3.358-3.153-2.298-2.68-6.246-8.1-8.545-11.724-2.298-3.624-2.945-5.452-3.593-7.19-.649-1.738-1.298-3.39 6.392-4.185 7.69-.796 23.719-.738 33.795-.266s14.2 1.356 17.441 2.918c3.241 1.562 5.598 3.802 7.366 6.041 1.767 2.24 2.947 4.477 3.3 7.217.354 2.74-.118 5.981-1.562 9.015-1.444 3.035-3.86 5.864-6.334 8.192-2.475 2.327-5.009 4.154-6.865 6.246-1.857 2.092-3.035 4.448-3.742 6.717-.708 2.269-.943 4.45-.854 6.04.089 1.592.5 2.593 1.09 3.005.59.411 1.355.235 1.885 1.002.53.766.826 2.475 1.77 3.152.942.677 2.532.323 4.122-1.238 1.59-1.562 3.182-4.33 5.127-6.48 1.945-2.152 4.244-3.683 6.453-5.599 2.21-1.915 4.33-4.214 6.776-5.275 2.446-1.06 5.215-.882 6.57.71 1.355 1.59 1.296 4.596.707 9.28-.59 4.685-1.709 11.048-3.152 16.764-1.444 5.716-3.212 10.783-1.827 13.906 1.386 3.123 5.924 4.302 18.122 4.92 12.197.619 32.055.677 42.75.47 10.694-.205 12.225-.676 14.523-1.501 2.298-.825 5.364-2.004 6.69-3.83 1.325-1.826.913-4.301-1.71-15.35-2.622-11.048-7.454-30.67-9.988-41.306-2.534-10.637-2.77-12.287-4.803-11.934-2.032.353-5.863 2.71-7.837 6.246-1.974 3.536-2.093 8.251-1.356 12.2.737 3.947 2.328 7.129 4.067 9.84 1.738 2.71 3.625 4.948 4.597 6.362.972 1.415 1.03 2.005 1.385 2.329.354.323 1 .382 2.297 2.445 1.296 2.063 3.24 6.129 4.271 9.252 1.031 3.123 1.15 5.303-.058 3.889-1.208-1.415-3.741-6.422-5.362-9.163-1.62-2.74-2.326-3.212-4.035-4.685-1.709-1.473-4.42-3.948-6.453-6.305-2.033-2.357-3.388-4.595-4.478-7.07-1.09-2.475-1.916-5.186-2.24-8.516-.325-3.33-.149-7.276.824-10.517a17.125 17.125 0 014.656-7.575c1.915-1.797 3.977-2.857 6.6-3.535 2.622-.677 5.805-.971 8.427-.588 2.623.384 4.685 1.444 4.803 1.827.118.382-1.71.087-2.477 2.503-.766 2.417-.472 7.543.53 13.495 1.002 5.951 2.71 12.728 4.037 16.351 1.326 3.624 2.27 4.096 2.74 4.656.47.56.47 1.207 3.86 2.975 3.388 1.768 10.164 4.656 14.878 6.424 4.714 1.768 7.367 2.415 8.545 1.385 1.178-1.031.883-3.742-1.68-7.573-2.562-3.83-7.394-8.779-10.458-12.609-3.065-3.83-4.362-6.54-5.01-10.488-.649-3.948-.65-9.134.47-13.377s3.361-7.543 6.22-9.635c2.858-2.092 6.334-2.976 14.583-3.447 8.25-.472 21.272-.531 28.137-.59 6.865-.06 7.571-.118 7.04-1.502-.53-1.384-2.297-4.095-3.151-6.6-.855-2.504-.797-4.801-.09-6.982.707-2.18 2.064-4.243 3.537-5.893 1.473-1.65 3.064-2.888 3.181-5.775.118-2.887-1.238-7.423-1.945-10.723-.707-3.3-.765-5.363-.558-7.101.206-1.739.677-3.153 1.03-4.42.354-1.267.59-2.386-.353-3.123-.942-.737-3.064-1.09-4.449-1.56-1.385-.472-2.033-1.06-2.652-1.061-.62 0-1.207.587-2.239 3.033-1.03 2.446-2.505 6.748-3.242 11.256-.736 4.508-.736 9.222-1.06 12.08-.324 2.857-.972 3.858-2.268 4.476-1.296.619-3.24.855-6.57.944-3.33.088-8.042.03-11.313-.147-3.27-.176-5.097-.472-6.158-1.355-1.061-.884-1.356-2.357-1.562-3.506-.207-1.15-.325-1.974-2.77-1.238s-7.219 3.034-11.049 4.595c-3.83 1.562-6.717 2.388-9.84 2.535-3.122.148-6.48-.383-9.25-1.296-2.77-.913-4.95-2.21-6.923-3.918a21.68 21.68 0 01-5.127-6.512c-1.385-2.681-2.388-5.921-2.889-8.838-.501-2.917-.502-5.51.176-8.633.677-3.123 2.033-6.776 3.506-9.722 1.473-2.947 3.065-5.187 4.273-6.366 1.209-1.178 2.033-1.296 2.563-1.797.53-.5.766-1.385 1.238-1.916.472-.53 1.179-.706 1.709-1.177.53-.471.883-1.237 2.799-2.504 1.915-1.267 5.39-3.036 9.103-3.979 3.713-.942 7.662-1.06 11.139-.619 3.477.442 6.48 1.446 8.514 2.418 2.032.973 3.093 1.915 3.8 2.77.707.854 1.06 1.62 2.21 1.972 1.149.353 3.095.295 4.273-.117 1.178-.412 1.59-1.178 2.15-2.062.56-.884 1.267-1.887 2.74-2.86 1.474-.972 3.712-1.913 5.952-2.385 2.239-.47 4.477-.47 5.714-.117 1.238.354 1.475 1.06 2.83 1.532 1.356.47 3.83.707 5.922.353 2.092-.354 3.8-1.297 5.774-1.709 1.974-.412 4.215-.295 6.248.295 2.033.59 3.86 1.65 5.273 2.828 1.414 1.179 2.415 2.475 4.713 2.15 2.298-.324 5.892-2.268 8.397-3.447 2.504-1.178 3.918-1.59 5.48-1.855a29.488 29.488 0 014.774-.383c1.502 0 2.798.117 2.916-3.065.117-3.18-.944-9.662-2.387-15.908a141.702 141.702 0 00-5.479-18.12 133.286 133.286 0 00-8.133-17.62c-3.329-6.04-7.394-12.403-9.457-15.998-2.062-3.595-2.121-4.418-2.503-4.979-.383-.56-1.09-.854-3.065-2.828-1.974-1.973-5.215-5.627-7.13-8.072-1.916-2.445-2.505-3.683-3.241-4.45-.736-.766-1.62-1.061-2.121-1.532-.501-.471-.62-1.12-1.385-1.739s-2.179-1.207-3.682-2.267c-1.502-1.06-3.094-2.593-5.392-4.508-2.298-1.915-5.303-4.214-10.518-7.543-5.214-3.33-12.64-7.69-17.648-10.076-5.009-2.387-7.602-2.8-9.43-1.887-1.827.914-2.887 3.153-3.21 5.098-.325 1.945.087 3.596 2.827 5.717 2.74 2.12 7.81 4.713 13.202 8.043 5.391 3.329 11.107 7.394 16.027 11.224 4.92 3.83 9.044 7.424 14.14 13.258 5.097 5.834 11.168 13.908 15.706 20.537 4.537 6.63 7.541 11.813 9.927 16.88 2.387 5.069 4.155 10.02 5.127 13.407.972 3.388 1.15 5.216-.088 6.246-1.237 1.03-3.89 1.266-9.87 1.207-5.982-.059-15.292-.413-20.83-1.355-5.54-.942-7.307-2.475-8.663-4.537-1.355-2.063-2.297-4.655-2.533-7.365-.236-2.711.235-5.539 2.357-6.659 2.122-1.12 5.893-.53 7.778-.677 1.885-.147 1.885-1.03.914-1.827-.972-.795-2.917-1.504-4.537-2.505-1.62-1.002-2.918-2.298-3.508-3.477-.59-1.178-.47-2.238.443-2.916.914-.678 2.622-.974 2.77-1.563.147-.588-1.267-1.472-1.946-2.591-.678-1.12-.618-2.475-1.119-3.389-.5-.914-1.562-1.384-2.27-2.65-.707-1.267-1.059-3.33-1.59-5.069-.53-1.738-1.236-3.152-1.855-3.83-.618-.678-1.149-.62-1.62.53-.473 1.149-.886 3.39-1.417 4.95-.53 1.562-1.178 2.445-1.797 2.917-.618.47-1.206.53-1.236.943-.03.413.5 1.178 1.149 1.56.648.383 1.414.384 1.709.915.294.53.116 1.591-.561 2.445-.677.854-1.856 1.5-2.504 2.621-.648 1.12-.765 2.712-1.62 3.625-.853.913-2.445 1.149-3.034 1.709-.59.56-.177 1.443 1.031 1.914 1.208.47 3.211.531 4.861.59 1.65.059 2.948.118 3.006.353.059.236-1.12.649-2.506 1.68-1.385 1.031-2.975 2.681-3.888 3.772-.914 1.09-1.15 1.62-.442 1.796.708.177 2.358 0 3.506-.972 1.149-.972 1.797-2.74 2.416-3.033.62-.295 1.209.882.973 2.709-.236 1.826-1.297 4.301-1.975 6.57-.677 2.269-.973 4.332-1.945 5.834-.972 1.502-2.622 2.445-4.684 3.094-2.062.648-4.537 1-6.629.412-2.091-.589-3.8-2.121-5.068-3.565-1.267-1.443-2.091-2.798-2.445-6.275-.354-3.477-.235-9.075.265-13.818.501-4.744 1.385-8.634 2.8-13.024 1.413-4.39 3.358-9.28 4.507-13.553 1.15-4.272 1.502-7.924 1.09-10.34-.412-2.415-1.59-3.595-3.535-3.507-1.945.088-4.656 1.444-7.16 3.064-2.505 1.62-4.802 3.506-6.776 4.567-1.974 1.06-3.625 1.295-5.305 3.21-1.68 1.916-3.387 5.51-4.595 7.573-1.208 2.062-1.915 2.592-2.621 2.77-.707.176-1.415 0-1.15-.796.264-.795 1.502-2.21 2.68-4.037 1.18-1.826 2.298-4.064 2.888-6.185.589-2.121.649-4.126.119-6.13-.53-2.003-1.651-4.005-2.182-7.776-.53-3.772-.47-9.311.178-14.438.648-5.127 1.885-9.84 2.504-13.494.619-3.653.618-6.245.47-7.895-.147-1.65-.44-2.357-3.533-3.654-3.093-1.297-8.987-3.183-12.258-4.273-3.27-1.09-3.917-1.383-3.918 2.771 0 4.155.647 12.756 1 20.682.354 7.925.413 15.174 0 20.595-.412 5.421-1.295 9.015-2.15 12.05-.854 3.034-1.679 5.51-1.826 9.782-.147 4.273.383 10.34.383 14.2 0 3.86-.53 5.51-1.178 6.865-.648 1.355-1.415 2.416-1.65 1.975-.236-.442.057-2.387.234-5.157.177-2.77.236-6.362-.088-10.31-.324-3.948-1.03-8.25-1.324-12.994-.295-4.744-.178-9.93.117-10.372.295-.441.766 3.86 1.356 6.04.59 2.18 1.296 2.238 2.18-1.739.883-3.977 1.944-11.99 2.357-17.676.412-5.686.175-9.044-.207-10.666-.383-1.62-.912-1.504-1.354-1.386-.442.118-.796.236-.943-3.387-.148-3.623-.09-10.989-.032-15.732.06-4.744.12-6.865-.292-7.897s-1.297-.973-2.682-2.092c-1.385-1.119-3.27-3.417-4.272-4.92-1.002-1.502-1.12-2.21-1.796-2.976-.678-.766-1.916-1.59-2.506-2.21-.59-.618-.53-1.03-.825-1.355-.294-.324-.942-.561-1.738-.738a3.99 3.99 0 00-.974-.115zM150.9 37.459c.027 0 .054.01.082.025.227.13.498.746.727 1.725.458 1.958.749 5.375.645 7.291-.105 1.916-.605 2.333-1.063.375-.458-1.958-.874-6.29-.77-8.207.046-.839.192-1.215.38-1.209zm-9.369 5.41c.21.02.504.882.906 2.652.688 3.021 1.688 8.689 2.125 12.522.438 3.833.312 5.833 0 6.791-.311.958-.81.874-1.416-1.022-.604-1.895-1.312-5.602-1.687-9.582-.375-3.979-.417-8.228-.25-10.166.063-.726.155-1.128.281-1.187a.079.079 0 01.041-.008zm12.127 14.563c.33.145.886 1.276 1.887 4.775 1.335 4.665 3.465 13.54 5.34 21.352 1.875 7.812 3.495 14.564 4.45 18.857.957 4.293 1.25 6.126 1.374 8.605.125 2.48.082 5.606-.209 6.48-.291.876-.832-.5-2.645-7.355-1.812-6.854-4.896-19.187-6.896-28.312s-2.917-15.04-3.375-18.707c-.458-3.667-.459-5.085-.188-5.565.068-.12.152-.179.262-.13zm-6.838 26.263a.127.127 0 01.043 0c.237.04.523.712.783 2.076.52 2.73.938 8.23.813 10.563s-.791 1.5-1.313-1.229c-.52-2.729-.896-7.353-.771-9.687.059-1.094.23-1.685.445-1.723zm1.903 26.028c.09-.01.183.048.277.152.375.417.75 1.585.916 3.69.166 2.104.126 5.144-.166 6.935-.292 1.791-.833 2.334-1.188.396-.354-1.936-.52-6.352-.416-8.728.079-1.782.308-2.416.577-2.445zm70.886 113.472c4.011.012 7.866.164 8.287.493.563.437-4.978 1.187-9.978 1.562s-9.458.376-11.688.105c-2.23-.27-2.23-.812-2.23-1.084 0-.27 0-.27 1.668-.437 1.667-.167 5-.501 10-.605 1.25-.027 2.604-.038 3.941-.034zm-67.072 12.95c2.342-.024 5.287.058 7.131.667 2.458.814 2.958 2.564 2.875 2.897-.083.333-.75-.75-3-1.272-2.25-.52-6.084-.478-7.897-.207-1.812.272-1.604.771-1.396 1.563.208.792.417 1.876.521 5.771.105 3.896.105 10.603-.25 15.561-.354 4.958-1.063 8.167-1.583 11.875-.521 3.708-.855 7.917-1.375 12.25-.521 4.333-1.23 8.792-1.667 8.459-.437-.333-.605-5.458-.355-11.041.25-5.584.918-11.625 1.543-16.063.625-4.437 1.208-7.27 1.291-12.062.083-4.792-.333-11.542-.416-14.918-.083-3.376.167-3.375 2.5-3.438.583-.015 1.298-.035 2.078-.042zM135 238.893a.66.66 0 01.459.294c.25.355.333 1.023.709 1.481.376.458 1.042.707 1.812 3.144.77 2.438 1.645 7.064 1.958 11.46.312 4.395.063 8.563-.292 9.458-.354.896-.813-1.48-1.208-5.021-.396-3.542-.73-8.25-1.438-11.625s-1.79-5.417-2.291-6.75c-.5-1.333-.417-1.958-.166-2.25a.52.52 0 01.457-.191zm29.65 7.316c.366-.035 1.007.836 2.225 4.459 1.5 4.459 3.875 13.084 5.041 19.396 1.166 6.313 1.126 10.313.584 10.375-.542.063-1.583-3.813-2.479-8.084-.895-4.27-1.647-8.937-2.605-12.875-.958-3.937-2.123-7.146-2.707-9.334-.584-2.187-.585-3.353-.272-3.79.06-.083.129-.139.213-.147zm-8.205 20.166c.102-.024.179.939.243 3.063.145 4.854.228 15.772-.147 24.917-.375 9.146-1.207 16.52-1.707 18.854-.5 2.333-.668-.375-.73-4.313-.063-3.937-.02-9.103.333-16.29.355-7.188 1.022-16.398 1.46-21.606.246-2.93.418-4.594.548-4.625zm16.422 18.646c.228-.038.32.328.217 1.834-.126 1.855-.542 5.438-1.25 7.854-.708 2.416-1.71 3.666-1.855 2.103-.146-1.562.562-5.936 1.187-8.416.625-2.48 1.167-3.062 1.522-3.29a.527.527 0 01.18-.085zm-5.978 16.965a.465.465 0 01.382.202c.27.354.313 1.147-.062 3.792-.375 2.646-1.167 7.145-1.563 7.52-.395.375-.396-3.374-.271-5.979.125-2.604.375-4.062.75-4.834.235-.482.518-.695.764-.7zm23.097 1.778c.467-.024 1.053 1.108 1.639 3.029.75 2.458 1.5 6.209 1.791 8.437.291 2.23.125 2.936-.75 1.957-.875-.978-2.458-3.644-3.125-6.457-.667-2.812-.416-5.77.084-6.666.11-.195.23-.294.361-.3z" display="inline" opacity="1" fill-rule="evenodd"/><path d="M21.563 140.438c.77-1.23 2.979-2.647 5.104-3.563 2.125-.917 4.167-1.333 6.709-1.167 2.542.167 5.584.917 6.666 2.918 1.083 2 .208 5.25-1.709 11.562-1.917 6.313-4.875 15.688-7.583 23.313-2.709 7.625-5.167 13.5-6.166 16.937-1 3.438-.542 4.438 1.938 5.354 2.48.917 6.98 1.75 10.437 1.979 3.459.229 5.875-.146 7.958-.875 2.083-.73 3.833-1.813 4.52-1.02.688.792.313 3.458-1.229 6.25-1.541 2.79-4.25 5.707-6.832 6.874-2.583 1.167-5.041.584-9.396-.5-4.354-1.083-10.604-2.666-16.208-3.708-5.604-1.042-10.563-1.542-12.855-2.167C.625 202 1 201.25 1.625 200.46c.625-.792 1.5-1.626 2.625-3.021 1.125-1.396 2.5-3.354 4.125-6.792 1.625-3.437 3.5-8.354 5.75-14.916 2.25-6.563 4.875-14.771 6.27-20.375 1.397-5.604 1.563-8.604 1.314-10.625-.25-2.02-.917-3.062-.146-4.292z" id="path2592" display="inline" opacity="1"/><path id="path2704" d="M83.762 155.125c-1.058.013-2.172.11-3.344.313-3.75.645-8.083 2.353-10.938 3.728-2.854 1.375-4.23 2.417-4.896 3.397-.667.98-.626 1.896-1.022 2.208-.395.313-1.228.02-2.624 1.479-1.397 1.458-3.354 4.666-4.667 7.688-1.312 3.02-1.979 5.854-2.312 9-.333 3.145-.334 6.605.228 9.542.563 2.938 1.688 5.355 3.772 7.438 2.084 2.083 5.126 3.833 8.855 4.728 3.73.896 8.146.937 11.791.27 3.646-.667 6.52-2.041 8.999-3.728 2.479-1.688 4.563-3.687 5.646-5.708 1.083-2.02 1.166-4.062.291-4.709-.875-.646-2.706.105-5.436.813-2.729.708-6.355 1.373-9.334 1.332-2.979-.041-5.311-.791-6.437-1.853-1.126-1.063-1.042-2.437.5-3.375 1.542-.939 4.542-1.438 8.084-2.688 3.541-1.25 7.623-3.25 10.436-5.334 2.812-2.083 4.354-4.249 5.334-6.707.979-2.458 1.395-5.208 1.25-7.479-.146-2.27-.855-4.062-2.188-5.625-1.333-1.562-3.291-2.896-5.854-3.771a18.195 18.195 0 00-6.134-.959zm-3.164 7.535c.139 0 .28.01.423.028 1.147.146 2.44.854 2.897 2.5.458 1.645.083 4.23-.897 6.355-.979 2.125-2.563 3.79-4.146 4.873-1.583 1.083-3.167 1.584-4.5 1.709-1.333.125-2.416-.124-2.375-1.854.041-1.729 1.208-4.937 2.375-7.333 1.167-2.397 2.332-3.979 3.416-4.979.948-.875 1.833-1.303 2.807-1.299z" display="inline" opacity="1"/><path d="M110.48 159.854c2.02-1.396 4.77-2.813 8.333-3.583 3.563-.771 7.938-.896 11.709.021 3.77.917 6.938 2.875 8.625 4.584 1.687 1.708 1.895 3.167 1.124 4.875-.771 1.707-2.521 3.666-4.187 4.707-1.666 1.042-3.25 1.167-4.625 0-1.375-1.165-2.542-3.623-4.396-5.02-1.854-1.396-4.395-1.73-5.75-1.167-1.355.563-1.521 2.022-1.063 3.397.46 1.375 1.543 2.666 3.918 4.208 2.375 1.541 6.042 3.333 8.583 5.25 2.541 1.917 3.958 3.958 4.875 6.125.916 2.167 1.333 4.458.832 7.02-.5 2.563-1.917 5.396-4.166 7.854-2.25 2.458-5.333 4.542-9.437 5.542-4.104 1-9.229.916-13.208.27-3.98-.645-6.812-1.853-8.792-3.103-1.98-1.25-3.104-2.541-3.813-4.104-.708-1.562-1-3.396-.708-4.188.292-.792 1.167-.542 1.583-.812.416-.27.375-1.062.896-1.98.52-.917 1.604-1.958 2.792-2.625 1.187-.667 2.48-.959 3.77.063 1.292 1.022 2.584 3.355 4.022 5.042 1.438 1.687 3.02 2.73 4.812 2.979 1.792.25 3.792-.293 4.729-1.438.937-1.145.812-2.895-1.792-5.52-2.603-2.625-7.687-6.125-10.708-9.042-3.02-2.916-3.98-5.25-4.063-7.687-.084-2.438.708-4.98 1.75-6.938 1.042-1.959 2.333-3.334 4.354-4.73z" id="path2712" display="inline" opacity="1"/><path d="M142.667 150.876c-1-1.917-.959-5.083-.667-7.25.291-2.167.833-3.334 1.77-4.792.938-1.459 2.272-3.209 4.334-4.792 2.063-1.584 4.855-3 7.647-3.667 2.792-.667 5.583-.583 10.771.063 5.188.646 12.77 1.854 20.187 2.479 7.417.625 14.667.666 18.792.333 4.124-.333 5.124-1.042 5.958-1.083.834-.041 1.5.584 1.666 1.917.167 1.334-.167 3.375-1.333 5.666-1.167 2.292-3.167 4.833-4.688 6.208-1.52 1.375-2.562 1.584-5.478 1.063-2.917-.52-7.708-1.77-10.063-1.895-2.355-.125-2.271.875-3.75 7.896-1.48 7.02-4.521 20.062-6.084 28.562-1.562 8.5-1.646 12.459-1.437 15.313.208 2.854.708 4.604-2.187 5.624-2.896 1.02-9.187 1.312-12.396 1.73-3.21.416-3.334.958-4.188.854-.853-.104-2.436-.854-3.229-1.833-.792-.98-.792-2.188.062-5.188.854-3 2.562-7.792 5.083-17.417 2.521-9.625 5.854-24.083 6.668-31.354.813-7.271-.896-7.355-3.354-7.355s-5.667.084-8.105.959c-2.438.875-4.104 2.541-5.792 4.541-1.688 2-3.396 4.334-5.27 5.167-1.875.834-3.916.167-4.917-1.75z" id="path2716" display="inline" opacity="1"/><path id="path2720" d="M226.436 154.447a22.547 22.547 0 00-4.061.407c-3.584.687-7.042 2.229-10.063 3.937-3.02 1.708-5.603 3.583-7.978 6.25s-4.542 6.126-6 9.855c-1.458 3.73-2.209 7.73-2.188 11.293.022 3.563.813 6.688 1.71 9.25.895 2.563 1.895 4.562 3.312 6.02 1.417 1.458 3.25 2.376 5.875 2.959 2.625.583 6.041.833 9.353.666 3.313-.167 6.522-.75 9.522-1.813 3-1.062 5.79-2.604 8.623-4.937 2.833-2.333 5.71-5.46 7.668-8.647 1.958-3.187 2.999-6.437 3.582-10.062.583-3.625.71-7.623.064-10.81-.645-3.188-2.063-5.563-4.271-7.813-2.208-2.25-5.208-4.375-8.563-5.522-2.096-.716-4.33-1.051-6.585-1.033zm-.75 9.434c.432.025.847.12 1.232.287 1.542.667 2.624 2.5 3.144 4.812.521 2.313.48 5.103-.54 9.145-1.021 4.042-3.022 9.334-4.563 12.396-1.542 3.063-2.625 3.896-4 4.417-1.375.52-3.042.73-4.584-.083-1.542-.811-2.957-2.645-3.582-4.79-.625-2.146-.46-4.606.27-7.794.729-3.187 2.02-7.103 3.5-10.187 1.479-3.084 3.144-5.334 4.978-6.709 1.375-1.031 2.846-1.57 4.145-1.494z" display="inline" opacity="1"/><path d="M250.48 160.5c.812-1.042 2.104-1.584 3.333-2.542 1.229-.958 2.395-2.333 4.604-2.77 2.21-.438 5.46.062 7.563 1.48 2.104 1.417 3.062 3.75 4.437 4.103 1.375.354 3.166-1.271 5.396-2.563 2.23-1.292 4.896-2.25 7.042-2.5s3.771.209 4.875 1.897 1.687 4.604 1.458 7.042c-.23 2.437-1.272 4.395-2.584 6.04-1.312 1.646-2.896 2.98-4.395 3.126-1.5.146-2.916-.895-3.792-2.041-.875-1.146-1.208-2.396-1.896-3.021-.687-.626-1.728-.626-3.083.582-1.355 1.209-3.021 3.626-4.647 7.522-1.625 3.896-3.208 9.27-4.02 13.917-.813 4.646-.854 8.562-1.729 10.562-.874 2-2.583 2.083-5.458 2.27-2.875.188-6.916.48-9.27-.041-2.355-.52-3.022-1.854-2.626-3.937.395-2.084 1.853-4.917 3.437-9.75 1.583-4.834 3.291-11.667 4.042-16.23.75-4.562.541-6.853-.312-7.979-.854-1.125-2.354-1.084-2.938-1.833-.584-.75-.25-2.292.562-3.334z" id="path2728" display="inline" opacity="1"/><path id="path2732" d="M312.764 155.305c-2.81.044-5.43.843-7.764 1.882-2.667 1.188-4.958 2.687-7 4.542-2.042 1.854-3.833 4.062-5.479 6.687-1.645 2.625-3.145 5.668-4.375 9.168-1.229 3.5-2.188 7.459-2.459 10.959-.27 3.5.146 6.541 1.188 8.978 1.042 2.438 2.71 4.272 4.69 5.5 1.979 1.23 4.27 1.854 6.978 1.667 2.708-.188 5.832-1.189 8.123-2.647 2.291-1.458 3.751-3.374 3.543-1.27-.208 2.105-2.084 8.23-3.688 11.667-1.603 3.437-2.937 4.187-4.437 4.625-1.5.437-3.167.562-5-.667-1.833-1.228-3.833-3.811-5.791-4.937-1.958-1.126-3.876-.792-5.48-.25-1.605.542-2.895 1.29-3.792 3.145-.896 1.854-1.397 4.814-.709 7.189.689 2.375 2.564 4.166 5.084 5.228 2.521 1.063 5.689 1.395 8.834 1.208a26.307 26.307 0 009.479-2.354c3.208-1.458 6.499-3.666 9.145-5.854 2.645-2.187 4.646-4.355 6.584-7.417 1.937-3.063 3.813-7.02 5.708-13.145 1.896-6.125 3.812-14.417 5.666-20.959 1.855-6.542 3.647-11.334 4.522-14.688.875-3.353.832-5.27-1.334-5.937-2.166-.667-6.458-.084-10.354-.438-3.895-.353-7.394-1.644-10.666-1.853a15.355 15.355 0 00-1.216-.03zm2.14 8.894c1.522-.108 2.733.723 3.264 2.363.708 2.188.208 5.814-.772 9.731-.979 3.917-2.438 8.123-4.042 10.998-1.605 2.875-3.354 4.417-5.27 4.938-1.916.52-4 .02-5.022-1.854-1.02-1.875-.98-5.125-.333-8.563.645-3.437 1.895-7.062 3.812-10.25 1.917-3.187 4.501-5.937 6.752-6.937a4.833 4.833 0 011.611-.426z" display="inline" opacity="1"/><path d="M335.563 193.146c.729-.688 2.02-1.98 3.813-2.563 1.792-.583 4.083-.458 6.063.167 1.979.626 3.645 1.75 4.5 3.668.853 1.916.894 4.625-.022 6.624-.917 2-2.792 3.291-5.229 3.833-2.437.542-5.437.333-7.083-.354s-1.938-1.853-2.23-3.687c-.292-1.833-.583-4.333-.646-5.625-.062-1.293.105-1.376.834-2.063z" id="path2794" display="inline" opacity="1"/><path d="M220.647 298.34c.324-1.179 1.562-2.062 4.331-3.359 2.77-1.296 7.071-3.005 9.9-3.358 2.829-.353 4.184.649 5.068 1.798.883 1.15 1.296 2.445 1.826 1.149.53-1.297 1.178-5.186 4.213-9.164 3.035-3.978 8.456-8.043 11.933-10.312 3.476-2.269 5.009-2.74 5.774-3.624.766-.883.766-2.18 2.652-4.33 1.885-2.152 5.657-5.157 10.341-11.226 4.685-6.07 10.282-15.203 15.675-20.3 5.392-5.097 10.577-6.158 13.346-5.715 2.77.442 3.123 2.387 2.77 4.567-.354 2.18-1.415 4.595-3.183 7.895-1.768 3.3-4.242 7.484-7.395 12.198-3.153 4.714-6.983 9.958-9.958 13.73-2.976 3.77-5.097 6.068-6.894 7.6-1.797 1.532-3.27 2.298-4.597 3.536-1.326 1.238-2.504 2.947-4.213 4.154-1.708 1.208-3.947 1.915-5.038 2.83-1.09.913-1.031 2.033-6.865 5.892-5.833 3.859-17.56 10.458-24.424 13.964-6.865 3.507-8.868 3.919-10.46 2.77-1.59-1.148-2.769-3.858-3.653-5.95-.884-2.092-1.473-3.565-1.149-4.744z" id="path2862" display="inline" opacity="1"/><path d="M232.345 239.003c.648-.296 2.769-.237 5.067.648 2.298.884 4.773 2.593 7.277 3.329 2.505.736 5.038.5 6.393.913 1.355.414 1.532 1.474 1.002 2.947s-1.768 3.358-1.915 4.3c-.147.944.796.944 1.71 1.916.912.973 1.796 2.918 2.09 5.452.295 2.533 0 5.656-.589 6.452-.589.795-1.473-.737-2.032-1.768-.56-1.031-.796-1.561-1.355-1.915-.56-.354-1.444-.531-3.182-1.415-1.738-.883-4.331-2.474-6.688-5.155-2.358-2.681-4.479-6.452-5.57-8.986-1.09-2.534-1.149-3.83-1.59-4.803-.442-.972-1.267-1.62-.618-1.915z" id="path2866" display="inline" opacity="1"/><path d="M112.136 242.037c-1.532-.914-6.54.324-10.076 1.237-3.536.913-5.598 1.503-6.482 1.12-.885-.383-.59-1.738-1.15-2.033-.56-.295-1.973.471-2.592 2.357-.62 1.887-.442 4.892-1.09 7.66-.649 2.77-2.122 5.304-2.918 7.867-.795 2.564-.913 5.157.354 5.303 1.267.147 3.919-2.15 6.6-4.213 2.681-2.063 5.392-3.89 7.248-5.775 1.856-1.885 2.857-3.83 4.007-4.92 1.15-1.09 2.446-1.326 4.066-2.976 1.62-1.65 3.564-4.714 2.033-5.627z" id="path2870" display="inline" opacity="1"/></g></svg>