<?xml version="1.0" encoding="UTF-8" standalone="no"?>
<svg
   version="1.1"
   width="351"
   height="319"
   id="svg1429"
   sodipodi:docname="Untitled-2.svg"
   inkscape:version="1.2.2 (732a01da63, 2022-12-09)"
   xmlns:inkscape="http://www.inkscape.org/namespaces/inkscape"
   xmlns:sodipodi="http://sodipodi.sourceforge.net/DTD/sodipodi-0.dtd"
   xmlns="http://www.w3.org/2000/svg"
   xmlns:svg="http://www.w3.org/2000/svg">
  <defs
     id="defs1433">
    <inkscape:path-effect
       effect="bspline"
       id="path-effect2872"
       is_visible="true"
       lpeversion="1"
       weight="33.333333"
       steps="2"
       helper_size="0"
       apply_no_weight="true"
       apply_with_weight="true"
       only_selected="false" />
    <inkscape:path-effect
       effect="bspline"
       id="path-effect2868"
       is_visible="true"
       lpeversion="1"
       weight="33.333333"
       steps="2"
       helper_size="0"
       apply_no_weight="true"
       apply_with_weight="true"
       only_selected="false" />
    <inkscape:path-effect
       effect="bspline"
       id="path-effect2864"
       is_visible="true"
       lpeversion="1"
       weight="33.333333"
       steps="2"
       helper_size="0"
       apply_no_weight="true"
       apply_with_weight="true"
       only_selected="false" />
    <inkscape:path-effect
       effect="bspline"
       id="path-effect2854"
       is_visible="true"
       lpeversion="1"
       weight="33.333333"
       steps="2"
       helper_size="0"
       apply_no_weight="true"
       apply_with_weight="true"
       only_selected="false" />
    <inkscape:path-effect
       effect="bspline"
       id="path-effect2850"
       is_visible="true"
       lpeversion="1"
       weight="33.333333"
       steps="2"
       helper_size="0"
       apply_no_weight="true"
       apply_with_weight="true"
       only_selected="false" />
    <inkscape:path-effect
       effect="bspline"
       id="path-effect2846"
       is_visible="true"
       lpeversion="1"
       weight="33.333333"
       steps="2"
       helper_size="0"
       apply_no_weight="true"
       apply_with_weight="true"
       only_selected="false" />
    <inkscape:path-effect
       effect="bspline"
       id="path-effect2842"
       is_visible="true"
       lpeversion="1"
       weight="33.333333"
       steps="2"
       helper_size="0"
       apply_no_weight="true"
       apply_with_weight="true"
       only_selected="false" />
    <inkscape:path-effect
       effect="bspline"
       id="path-effect2838"
       is_visible="true"
       lpeversion="1"
       weight="33.333333"
       steps="2"
       helper_size="0"
       apply_no_weight="true"
       apply_with_weight="true"
       only_selected="false" />
    <inkscape:path-effect
       effect="bspline"
       id="path-effect2834"
       is_visible="true"
       lpeversion="1"
       weight="33.333333"
       steps="2"
       helper_size="0"
       apply_no_weight="true"
       apply_with_weight="true"
       only_selected="false" />
    <inkscape:path-effect
       effect="bspline"
       id="path-effect2823"
       is_visible="true"
       lpeversion="1"
       weight="33.333333"
       steps="2"
       helper_size="0"
       apply_no_weight="true"
       apply_with_weight="true"
       only_selected="false" />
    <inkscape:path-effect
       effect="bspline"
       id="path-effect2819"
       is_visible="true"
       lpeversion="1"
       weight="33.333333"
       steps="2"
       helper_size="0"
       apply_no_weight="true"
       apply_with_weight="true"
       only_selected="false" />
    <inkscape:path-effect
       effect="bspline"
       id="path-effect2796"
       is_visible="true"
       lpeversion="1"
       weight="33.333333"
       steps="2"
       helper_size="0"
       apply_no_weight="true"
       apply_with_weight="true"
       only_selected="false" />
    <inkscape:path-effect
       effect="bspline"
       id="path-effect2738"
       is_visible="true"
       lpeversion="1"
       weight="33.333333"
       steps="2"
       helper_size="0"
       apply_no_weight="true"
       apply_with_weight="true"
       only_selected="false" />
    <inkscape:path-effect
       effect="bspline"
       id="path-effect2734"
       is_visible="true"
       lpeversion="1"
       weight="33.333333"
       steps="2"
       helper_size="0"
       apply_no_weight="true"
       apply_with_weight="true"
       only_selected="false" />
    <inkscape:path-effect
       effect="bspline"
       id="path-effect2730"
       is_visible="true"
       lpeversion="1"
       weight="33.333333"
       steps="2"
       helper_size="0"
       apply_no_weight="true"
       apply_with_weight="true"
       only_selected="false" />
    <inkscape:path-effect
       effect="bspline"
       id="path-effect2726"
       is_visible="true"
       lpeversion="1"
       weight="33.333333"
       steps="2"
       helper_size="0"
       apply_no_weight="true"
       apply_with_weight="true"
       only_selected="false" />
    <inkscape:path-effect
       effect="bspline"
       id="path-effect2722"
       is_visible="true"
       lpeversion="1"
       weight="33.333333"
       steps="2"
       helper_size="0"
       apply_no_weight="true"
       apply_with_weight="true"
       only_selected="false" />
    <inkscape:path-effect
       effect="bspline"
       id="path-effect2718"
       is_visible="true"
       lpeversion="1"
       weight="33.333333"
       steps="2"
       helper_size="0"
       apply_no_weight="true"
       apply_with_weight="true"
       only_selected="false" />
    <inkscape:path-effect
       effect="bspline"
       id="path-effect2714"
       is_visible="true"
       lpeversion="1"
       weight="33.333333"
       steps="2"
       helper_size="0"
       apply_no_weight="true"
       apply_with_weight="true"
       only_selected="false" />
    <inkscape:path-effect
       effect="bspline"
       id="path-effect2710"
       is_visible="true"
       lpeversion="1"
       weight="33.333333"
       steps="2"
       helper_size="0"
       apply_no_weight="true"
       apply_with_weight="true"
       only_selected="false" />
    <inkscape:path-effect
       effect="bspline"
       id="path-effect2706"
       is_visible="true"
       lpeversion="1"
       weight="33.333333"
       steps="2"
       helper_size="0"
       apply_no_weight="true"
       apply_with_weight="true"
       only_selected="false" />
    <inkscape:path-effect
       effect="bspline"
       id="path-effect2594"
       is_visible="true"
       lpeversion="1"
       weight="33.333333"
       steps="2"
       helper_size="0"
       apply_no_weight="true"
       apply_with_weight="true"
       only_selected="false" />
    <inkscape:path-effect
       effect="bspline"
       id="path-effect2538"
       is_visible="true"
       lpeversion="1"
       weight="33.333333"
       steps="2"
       helper_size="0"
       apply_no_weight="true"
       apply_with_weight="true"
       only_selected="false" />
    <inkscape:path-effect
       effect="bspline"
       id="path-effect2534"
       is_visible="true"
       lpeversion="1"
       weight="33.333333"
       steps="2"
       helper_size="0"
       apply_no_weight="true"
       apply_with_weight="true"
       only_selected="false" />
    <inkscape:path-effect
       effect="bspline"
       id="path-effect2530"
       is_visible="true"
       lpeversion="1"
       weight="33.333333"
       steps="2"
       helper_size="0"
       apply_no_weight="true"
       apply_with_weight="true"
       only_selected="false" />
    <inkscape:path-effect
       effect="bspline"
       id="path-effect2526"
       is_visible="true"
       lpeversion="1"
       weight="33.333333"
       steps="2"
       helper_size="0"
       apply_no_weight="true"
       apply_with_weight="true"
       only_selected="false" />
    <inkscape:path-effect
       effect="bspline"
       id="path-effect2522"
       is_visible="true"
       lpeversion="1"
       weight="33.333333"
       steps="2"
       helper_size="0"
       apply_no_weight="true"
       apply_with_weight="true"
       only_selected="false" />
    <inkscape:path-effect
       effect="bspline"
       id="path-effect2356"
       is_visible="true"
       lpeversion="1"
       weight="33.333333"
       steps="2"
       helper_size="0"
       apply_no_weight="true"
       apply_with_weight="true"
       only_selected="false" />
    <inkscape:path-effect
       effect="bspline"
       id="path-effect2276"
       is_visible="true"
       lpeversion="1"
       weight="33.333333"
       steps="2"
       helper_size="0"
       apply_no_weight="true"
       apply_with_weight="true"
       only_selected="false" />
    <inkscape:path-effect
       effect="bspline"
       id="path-effect2239"
       is_visible="true"
       lpeversion="1"
       weight="33.333333"
       steps="2"
       helper_size="0"
       apply_no_weight="true"
       apply_with_weight="true"
       only_selected="false" />
  </defs>
  <sodipodi:namedview
     id="namedview1431"
     pagecolor="#ffffff"
     bordercolor="#111111"
     borderopacity="1"
     inkscape:showpageshadow="0"
     inkscape:pageopacity="0"
     inkscape:pagecheckerboard="1"
     inkscape:deskcolor="#d1d1d1"
     showgrid="false"
     inkscape:zoom="2"
     inkscape:cx="168.75"
     inkscape:cy="161.5"
     inkscape:window-width="1920"
     inkscape:window-height="1017"
     inkscape:window-x="-8"
     inkscape:window-y="-8"
     inkscape:window-maximized="1"
     inkscape:current-layer="svg1429" />
  <g
     id="g2815"
     style="display:inline;fill:#ffffff;fill-opacity:1;stroke-width:1;stroke-dasharray:none">
    <path
       id="path2274"
       style="display:inline;opacity:1;fill:#ffffff;fill-opacity:1;fill-rule:evenodd;stroke:#000000;stroke-width:1;stroke-dasharray:none;stroke-opacity:1"
       d="M 176.18555 0.296875 C 175.58818 0.3097824 174.88106 0.50397176 173.97852 1.1484375 C 172.53425 2.1795829 170.58897 4.3613177 169.23438 5.3925781 C 167.87966 6.4238399 167.11449 6.3044212 166.99609 11.490234 C 166.87769 16.676055 167.40801 27.166224 167.37891 31.96875 C 167.34981 36.771275 166.76017 35.886494 166.05273 31.761719 C 165.34543 27.636945 164.52083 20.271079 163.90234 16.175781 C 163.28385 12.080484 162.87035 11.255576 161.2793 11.431641 C 159.68825 11.607692 156.91901 12.78619 154.94531 13.257812 C 152.97161 13.729446 151.79296 13.494747 151.20312 16.794922 C 150.6134 20.095097 150.6142 26.929102 150.34961 30.169922 C 150.08502 33.410743 149.55349 33.058849 149.16992 30.554688 C 148.78635 28.050513 148.5516 23.394166 148.4043 20.683594 C 148.257 17.973008 148.1981 17.207956 145.54688 17.501953 C 142.89554 17.79595 137.65007 19.150486 134.67383 20.476562 C 131.69759 21.802651 130.99219 23.098751 130.96289 26.310547 C 130.93359 29.522344 131.58074 34.649369 132.11133 37.595703 C 132.64192 40.542036 133.05367 41.308544 133.28906 44.460938 C 133.52444 47.613319 133.58398 53.152057 133.25977 56.716797 C 132.93558 60.281524 132.22805 61.871346 131.49219 62.519531 C 130.75632 63.167728 129.99192 62.874964 129.01953 62.138672 C 128.04715 61.402381 126.86746 60.222462 126.21875 60.958984 C 125.57004 61.69552 125.45229 64.347663 126.24805 67.794922 C 127.04381 71.242169 128.75227 75.484 129.45898 79.048828 C 130.16581 82.613668 129.87222 85.502143 128.92969 87.298828 C 127.98715 89.095513 126.39612 89.802131 125.01172 89.832031 C 123.62732 89.861931 122.44845 89.214288 120.88672 87.535156 C 119.32499 85.856036 117.37988 83.145515 116.20117 81.230469 C 115.02245 79.315423 114.60978 78.195576 113.78516 77.546875 C 112.96054 76.898169 111.72382 76.721688 110.54492 76.927734 C 109.36602 77.133793 108.24766 77.723022 107.6582 79.638672 C 107.06869 81.554323 107.00966 84.794751 107.6875 88.625 C 108.36535 92.45525 109.77807 96.874024 111.36914 101.20508 C 112.9602 105.53603 114.72834 109.7796 115.81836 112.84375 C 116.90838 115.9079 117.32158 117.79279 117.46875 120.26758 C 117.61592 122.74237 117.49705 125.80802 116.9668 127.75195 C 116.43652 129.69602 115.49468 130.52093 113.93359 130.96289 C 112.37263 131.40486 110.19232 131.46218 107.2168 130.49023 C 104.24115 129.51842 100.46915 127.51633 98.052734 124.57031 C 95.636354 121.62442 94.575125 117.73515 94.103516 115.20117 C 93.631894 112.66718 93.749551 111.48881 94.103516 111.37109 C 94.457468 111.25337 95.047346 112.19586 96.314453 112.87305 C 97.581559 113.55024 99.526265 113.96176 100.52734 113.75586 C 101.52848 113.54996 101.58735 112.72562 100.88086 111.87109 C 100.17437 111.01655 98.701244 110.1322 97.699219 109.16016 C 96.697195 108.18813 96.167072 107.1286 96.638672 106.59766 C 97.110258 106.06672 98.583177 106.0662 99.761719 106.0957 C 100.94027 106.1252 101.82499 106.1832 101.35352 105.12305 C 100.88205 104.0629 99.054314 101.88275 98.169922 100.52734 C 97.285531 99.171989 97.343989 98.642344 96.84375 97.994141 C 96.34351 97.345924 95.284682 96.58043 94.783203 95.814453 C 94.281737 95.048476 94.338957 94.282276 95.105469 93.839844 C 95.871981 93.3974 97.345917 93.279593 98.082031 93.220703 C 98.818158 93.161813 94.751778 89.095203 94.398438 88.035156 C 94.045084 86.975109 93.338587 84.854967 92.837891 83.558594 C 92.337182 82.262204 92.042295 81.790563 91.1875 82.320312 C 90.332705 82.850074 88.918696 84.382229 88.417969 86.121094 C 87.91723 87.859947 88.330259 89.804137 88.212891 90.658203 C 88.095523 91.51227 87.447024 91.276624 86.916016 92.072266 C 86.384994 92.867895 85.971446 94.693627 85.117188 96.107422 C 84.262918 97.521205 82.966797 98.523921 83.232422 99.113281 C 83.498047 99.702654 85.325431 99.879206 85.914062 100.49805 C 86.502706 101.11686 85.853722 102.17802 84.763672 103.5332 C 83.673624 104.88838 82.142335 106.53759 80.728516 107.50977 C 79.314685 108.48183 78.017494 108.77682 77.398438 109.45508 C 76.779369 110.13333 76.838143 111.19278 78.8125 111.39844 C 80.786858 111.60409 84.676064 110.95695 86.767578 112.25391 C 88.859092 113.55074 89.154966 116.79131 88.712891 119.58984 C 88.270804 122.3885 87.092274 124.7453 85.589844 126.66016 C 84.087401 128.57489 82.260658 130.04951 77.164062 130.96289 C 72.06748 131.87628 63.69987 132.22924 58.013672 131.69922 C 52.327474 131.16919 49.321631 129.75392 48.171875 127.66211 C 47.022118 125.57031 47.72925 122.80184 48.642578 119.85547 C 49.555905 116.9091 50.675164 113.78575 53.5625 108.1582 C 56.449835 102.53078 61.105358 94.399828 63.787109 90.363281 C 66.468873 86.326734 67.176345 86.3842 67.882812 85.765625 C 68.589293 85.14705 69.29692 83.851453 70.328125 82.142578 C 71.35933 80.433702 72.714258 78.312996 74.1875 76.515625 C 75.660741 74.718253 77.252395 73.244483 78.902344 71.800781 C 80.552281 70.357092 82.261073 68.943004 84.117188 67.263672 C 85.973291 65.58434 87.975552 63.638976 90.921875 61.164062 C 93.868198 58.68916 97.758457 55.684379 101.44141 53.121094 C 105.12424 50.557795 108.59912 48.436409 112.13477 46.550781 C 115.67029 44.665153 119.26492 43.015137 122.85938 41.365234 L 125.51172 41.542969 C 125.51172 41.542969 122.15224 26.693253 121.44531 27.076172 C 120.73838 27.459079 119.32454 28.225441 115.78906 29.816406 C 112.25371 31.407383 106.5975 33.823615 102.50195 36.003906 C 98.40649 38.184197 95.871537 40.127414 91.628906 43.515625 C 87.386276 46.903836 81.435678 51.737396 77.900391 54.330078 C 74.365091 56.922773 73.245602 57.275268 72.361328 57.953125 C 71.477055 58.630983 70.827605 59.633848 69.501953 60.871094 C 68.176301 62.10834 66.174517 63.579651 64.347656 65.701172 C 62.520795 67.822694 60.869232 70.592641 59.691406 71.800781 C 58.51358 73.008921 57.807424 72.65554 57.099609 73.480469 C 56.391806 74.305398 55.683744 76.309216 54.59375 77.988281 C 53.503756 79.667359 52.031483 81.023077 50.970703 82.761719 C 49.909923 84.500348 49.261761 86.621605 47.169922 91.070312 C 45.078083 95.519032 41.541777 102.29432 38.978516 107.92188 C 36.415243 113.5493 34.824827 118.02946 33.675781 121.47656 C 32.526731 124.92379 31.819137 127.33946 33.646484 129.16602 C 35.473847 130.99244 39.835251 132.22839 42.398438 133.23047 C 44.961612 134.23255 45.72685 134.99867 46.109375 136.61914 C 46.491899 138.2396 46.492361 140.71603 44.046875 149.23047 C 41.60139 157.74491 36.711417 172.29804 33.853516 180.42969 C 30.995601 188.56135 30.169278 190.27025 32.261719 191.21289 C 34.354159 192.15552 39.3638 192.33339 42.486328 191.74414 C 45.608856 191.15489 46.846302 189.79923 47.789062 187.23633 C 48.731836 184.67343 49.379634 180.90233 50.646484 177.13086 C 51.913346 173.35938 53.798762 169.58885 56.568359 165.99414 C 59.33797 162.39943 62.992445 158.98052 66.380859 156.56445 C 69.769285 154.14851 72.89207 152.73419 76.751953 152.05664 C 80.611836 151.37909 85.208211 151.43848 88.449219 151.91016 C 91.690227 152.38184 93.575902 153.26644 95.373047 154.47461 C 97.170193 155.68278 98.878523 157.21369 99.732422 158.45117 C 100.58633 159.68865 100.5865 160.63177 101.5 160.57227 C 102.4135 160.51277 104.24018 159.45303 106.00781 158.06836 C 107.77544 156.68369 109.4848 154.97389 111.45898 153.73633 C 113.4333 152.49878 115.67081 151.73236 118.94141 151.37891 C 122.21188 151.02546 126.51483 151.08605 129.75586 151.38086 C 132.99689 151.67563 135.1759 152.20426 136.29492 150.87891 C 137.41393 149.55344 137.47267 146.37123 138.17969 143.27734 C 138.8867 140.18358 140.24329 137.17829 142.09961 134.70312 C 143.95594 132.22807 146.31237 130.28394 148.72852 128.78125 C 151.14455 127.27857 153.61968 126.21791 156.27148 125.6582 C 158.9234 125.09849 161.75097 125.0407 165.375 125.42383 C 168.99904 125.80696 173.41845 126.63097 177.51367 127.30859 C 181.60903 127.98622 185.38042 128.51599 189.62305 128.81055 C 193.86554 129.1051 198.58074 129.16457 202.64648 129.07617 C 206.71235 128.98777 210.12993 128.75174 212.69336 129.07617 C 215.25679 129.4006 216.96506 130.28435 217.73047 131.78711 C 218.49588 133.28986 218.31849 135.41177 217.61133 137.62109 C 216.90416 139.83055 215.66704 142.12845 214.66602 143.27734 C 213.66487 144.42623 212.89853 144.42673 211.57227 145.63477 C 210.24589 146.84268 208.36116 149.25816 205.85742 150.23047 C 203.35368 151.20279 200.22976 150.73246 197.93164 150.37891 C 195.63352 150.02536 194.16188 149.78828 191.89258 156.12305 C 189.62328 162.45768 186.5574 175.3633 185.02539 182.96484 C 183.49338 190.56651 183.49358 192.86514 183.25781 194.33789 C 183.02204 195.81064 182.55092 196.45736 182.75781 197.04688 C 182.9647 197.63627 183.84855 198.16695 184.4668 199.3457 C 185.08506 200.52444 185.43873 202.35169 184.87891 203.82422 C 184.31908 205.29674 182.84566 206.41653 177.92578 207.00586 C 173.00603 207.59518 164.63937 207.65348 159.98438 207.35938 C 155.32925 207.06515 154.3862 206.41618 153.88477 205.32617 C 153.38333 204.23617 153.3243 202.70443 153.67773 201.14258 C 154.03116 199.58073 154.7981 197.99082 155.50586 197.22461 C 156.21361 196.4584 156.861 196.51579 157.39062 194.66016 C 157.92037 192.8044 158.33387 189.03459 159.74805 181.52148 C 161.16224 174.00849 163.57795 162.75264 164.99219 156.03516 C 166.40644 149.31754 166.81723 147.13762 165.55078 146.37109 C 164.28433 145.60456 161.33805 146.25341 158.92188 147.37305 C 156.50557 148.49268 154.62125 150.08404 153.23633 151.76367 C 151.85142 153.44331 150.96743 155.21087 149.75977 156.6543 C 148.55197 158.09773 147.01914 159.21578 146.07617 161.04297 C 145.1332 162.87016 144.77909 165.40432 143.77734 167.87891 C 142.77558 170.35337 141.12736 172.77009 141.00977 176.07031 C 140.89218 179.37066 142.30519 183.55385 142.27539 187.58984 C 142.24569 191.62595 140.77304 195.51515 139.68359 197.37109 C 138.59415 199.22716 137.88717 199.05109 137.23828 199.66992 C 136.5894 200.28874 136.00053 201.70377 134.46875 203.05859 C 132.93697 204.41355 130.46227 205.70801 126.69141 206.5625 C 122.92042 207.417 117.85147 207.8312 113.66797 207.5957 C 109.48434 207.36019 106.1844 206.47633 103.62109 205.41602 C 101.05791 204.35558 99.232854 203.11733 98.113281 202.43945 C 96.993709 201.76158 96.58012 201.64328 94.900391 202.26172 C 93.22065 202.88016 90.273959 204.23637 87.740234 205.26758 C 85.206522 206.2988 83.086104 207.00476 79.904297 207.53516 C 76.72249 208.06555 72.479403 208.41955 68.826172 208.0957 C 65.17294 207.77185 62.109783 206.76994 60.341797 205.91602 C 58.573812 205.06197 58.101145 204.35486 57.099609 203.85352 C 56.098073 203.35218 54.565625 203.05843 52.384766 204.82617 C 50.203893 206.59391 47.376714 210.42239 44.548828 212.42578 C 41.720943 214.42915 38.891382 214.60638 36.652344 214.40039 C 34.413306 214.1944 32.764535 213.60511 33.029297 216.375 C 33.294059 219.14488 35.473313 225.27394 36.445312 229.04492 C 37.417323 232.81602 37.181134 234.2301 37.564453 234.73047 C 37.947785 235.23085 38.950698 234.81777 40.423828 236.88086 C 41.896971 238.94396 43.841233 243.4825 46.699219 248.66797 C 49.557206 253.85331 53.327503 259.68529 56.539062 263.89844 C 59.750633 268.11146 62.402843 270.70409 65.4375 273.65039 C 68.472158 276.59669 71.889315 279.89817 73.597656 282.01953 C 75.30601 284.14089 75.306771 285.08192 76.220703 285.84766 C 77.134636 286.61339 78.962502 287.20361 83.205078 289.85547 C 87.447655 292.50734 94.104345 297.22121 99.849609 300.63867 C 105.59484 304.05626 110.42815 306.17834 113.81641 307.47461 C 117.20453 308.77087 119.14874 309.24162 120.94531 307.5918 C 122.74187 305.94198 124.39218 302.171 124.33398 299.87305 C 124.27578 297.57496 122.50727 296.7489 120.17969 295.92383 C 117.85211 295.09875 114.96561 294.27498 113.19727 294.36328 C 111.4288 294.45158 110.78009 295.45265 109.83789 295.89453 C 108.8957 296.33641 107.6574 296.21806 106.41992 295.57031 C 105.18244 294.92256 103.94511 293.74407 103.00195 292.00586 C 102.05878 290.26765 101.41147 287.97121 99.025391 285.49609 C 96.639338 283.02111 92.514669 280.36914 90.333984 278.60156 C 88.153312 276.83398 87.917755 275.94949 87.181641 275.27148 C 86.445514 274.59359 85.208305 274.12182 83.263672 272.56055 C 81.319038 270.99929 78.666558 268.34751 77.251953 266.60938 C 75.837361 264.87113 75.660264 264.0459 74.865234 263.2207 C 74.070216 262.3955 72.657326 261.57167 71.861328 260.59961 C 71.065329 259.62755 70.886728 258.50751 70.474609 257.97656 C 70.062503 257.44561 69.41529 257.50472 67.117188 254.82422 C 64.819072 252.14371 60.870561 246.72355 58.572266 243.09961 C 56.273958 239.47567 55.626666 237.64835 54.978516 235.91016 C 54.330353 234.17185 53.681141 232.52073 61.371094 231.72461 C 69.061035 230.9285 85.089635 230.98746 95.166016 231.45898 C 105.2424 231.93051 109.36667 232.81505 112.60742 234.37695 C 115.8483 235.93884 118.20507 238.17866 119.97266 240.41797 C 121.74012 242.65727 122.92025 244.89488 123.27344 247.63477 C 123.62663 250.37453 123.15459 253.61607 121.71094 256.65039 C 120.26728 259.68471 117.85172 262.51432 115.37695 264.8418 C 112.90231 267.16915 110.36809 268.99575 108.51172 271.08789 C 106.65535 273.18003 105.47659 275.53579 104.76953 277.80469 C 104.06246 280.07359 103.82732 282.25452 103.91602 283.8457 C 104.00472 285.43688 104.41649 286.43781 105.00586 286.84961 C 105.59524 287.26142 106.36068 287.08488 106.89062 287.85156 C 107.42069 288.61825 107.71707 290.3269 108.66016 291.00391 C 109.60324 291.68092 111.19266 291.32691 112.7832 289.76562 C 114.37374 288.20446 115.96539 285.43608 117.91016 283.28516 C 119.8548 281.13411 122.15368 279.6025 124.36328 277.6875 C 126.57287 275.7725 128.69268 273.47278 131.13867 272.41211 C 133.58465 271.35144 136.35433 271.52978 137.70898 273.12109 C 139.06375 274.71254 139.00534 277.71795 138.41602 282.40234 C 137.8267 287.08686 136.70739 293.45029 135.26367 299.16602 C 133.81995 304.88162 132.05207 309.9493 133.4375 313.07227 C 134.82292 316.19511 139.3613 317.37361 151.55859 317.99219 C 163.756 318.61077 183.61371 318.66923 194.30859 318.46289 C 205.00346 318.25655 206.53396 317.78591 208.83203 316.96094 C 211.13009 316.13597 214.19592 314.95689 215.52148 313.13086 C 216.84716 311.30483 216.43464 308.82968 213.8125 297.78125 C 211.19035 286.73283 206.35813 267.11077 203.82422 256.47461 C 201.29031 245.83845 201.05435 244.18812 199.02148 244.54102 C 196.98873 244.89391 193.15779 247.25098 191.18359 250.78711 C 189.20953 254.32324 189.09137 259.03815 189.82812 262.98633 C 190.565 266.93437 192.15606 270.11563 193.89453 272.82617 C 195.63301 275.53672 197.5203 277.77521 198.49219 279.18945 C 199.46408 280.60369 199.52291 281.19398 199.87695 281.51758 C 200.23099 281.84119 200.87771 281.89994 202.17383 283.96289 C 203.46994 286.02584 205.41435 290.09194 206.44531 293.21484 C 207.47626 296.33786 207.59443 298.51751 206.38672 297.10352 C 205.17902 295.6894 202.6456 290.68158 201.02539 287.94141 C 199.40518 285.2011 198.69913 284.72891 196.99023 283.25586 C 195.28145 281.7828 192.57024 279.30811 190.53711 276.95117 C 188.50398 274.59423 187.14891 272.35575 186.05859 269.88086 C 184.96828 267.40597 184.14266 264.69467 183.81836 261.36523 C 183.49405 258.03592 183.67036 254.08885 184.64258 250.84766 C 185.61481 247.60634 187.38347 245.0709 189.29883 243.27344 C 191.21419 241.47599 193.27597 240.41588 195.89844 239.73828 C 198.52078 239.06072 201.70381 238.76703 204.32617 239.15039 C 206.94854 239.53375 209.01108 240.59375 209.12891 240.97656 C 209.24675 241.35937 207.41893 241.06406 206.65234 243.48047 C 205.88576 245.89685 206.17979 251.02314 207.18164 256.97461 C 208.1835 262.92608 209.89245 269.7026 211.21875 273.32617 C 212.54504 276.94986 213.48816 277.42242 213.95898 277.98242 C 214.42979 278.54242 214.42954 279.1895 217.81836 280.95703 C 221.20719 282.72457 227.98318 285.61318 232.69727 287.38086 C 237.41123 289.14854 240.06418 289.7964 241.24219 288.76562 C 242.4202 287.73496 242.12533 285.0236 239.5625 281.19336 C 236.99967 277.36313 232.16777 272.4141 229.10352 268.58398 C 226.03913 264.75399 224.74223 262.04384 224.09375 258.0957 C 223.44527 254.14769 223.44494 248.96183 224.56445 244.71875 C 225.68396 240.47566 227.92499 237.17606 230.7832 235.08398 C 233.64153 232.99202 237.11756 232.10804 245.36719 231.63672 C 253.61683 231.16539 266.639 231.10575 273.50391 231.04688 C 280.3687 230.98788 281.07532 230.92905 280.54492 229.54492 C 280.01452 228.16079 278.24741 225.44977 277.39258 222.94531 C 276.53771 220.44098 276.59587 218.14353 277.30273 215.96289 C 278.00977 213.78226 279.36667 211.72042 280.83984 210.07031 C 282.31314 208.42019 283.90351 207.18163 284.02148 204.29492 C 284.13946 201.4082 282.78345 196.8721 282.07617 193.57227 C 281.36888 190.27232 281.31146 188.20924 281.51758 186.4707 C 281.7237 184.73216 282.19525 183.31762 282.54883 182.05078 C 282.90241 180.78394 283.13747 179.6646 282.19531 178.92773 C 281.25316 178.191 279.13091 177.83822 277.74609 177.36719 C 276.36141 176.89617 275.713 176.30712 275.09375 176.30664 C 274.4745 176.30616 273.88678 176.89426 272.85547 179.33984 C 271.82417 181.78556 270.34977 186.08778 269.61328 190.5957 C 268.8768 195.10376 268.8769 199.81822 268.55273 202.67578 C 268.22856 205.53334 267.58088 206.53379 266.28516 207.15234 C 264.98931 207.77089 263.04409 208.0073 259.71484 208.0957 C 256.38573 208.1841 251.67269 208.1259 248.40234 207.94922 C 245.13211 207.77253 243.30526 207.47715 242.24414 206.59375 C 241.18301 205.71035 240.88792 204.23697 240.68164 203.08789 C 240.47536 201.93877 240.35739 201.11371 237.91211 201.84961 C 235.46683 202.58551 230.69337 204.88376 226.86328 206.44531 C 223.03332 208.00687 220.14616 208.83297 217.02344 208.98047 C 213.90059 209.12798 210.54282 208.59668 207.77344 207.68359 C 205.00393 206.7705 202.82378 205.47428 200.84961 203.76562 C 198.87544 202.05708 197.10756 199.93485 195.72266 197.25391 C 194.33762 194.57283 193.33505 191.33284 192.83398 188.41602 C 192.33292 185.49908 192.33223 182.90651 193.00977 179.7832 C 193.68719 176.66002 195.04256 173.00691 196.51562 170.06055 C 197.9888 167.11405 199.58058 164.874 200.78906 163.69531 C 201.99754 162.51662 202.82173 162.39891 203.35156 161.89844 C 203.88138 161.39798 204.11799 160.51319 204.58984 159.98242 C 205.0617 159.45165 205.76895 159.27579 206.29883 158.80469 C 206.82871 158.3336 207.18227 157.56801 209.09766 156.30078 C 211.01291 155.03355 214.48867 153.26488 218.20117 152.32227 C 221.91381 151.37953 225.86321 151.2611 229.33984 151.70312 C 232.81661 152.14528 235.82063 153.14854 237.85352 154.12109 C 239.88628 155.09364 240.94743 156.03618 241.6543 156.89062 C 242.36117 157.74518 242.71402 158.51033 243.86328 158.86328 C 245.01254 159.21623 246.95877 159.15838 248.13672 158.74609 C 249.31468 158.3338 249.72728 157.56757 250.28711 156.68359 C 250.84693 155.79962 251.55401 154.7967 253.02734 153.82422 C 254.5008 152.85174 256.73907 151.91076 258.97852 151.43945 C 261.21784 150.96814 263.4562 150.96812 264.69336 151.32227 C 265.93051 151.67642 266.16781 152.38266 267.52344 152.85352 C 268.87908 153.32438 271.35381 153.56073 273.44531 153.20703 C 275.53682 152.85334 277.24437 151.91042 279.21875 151.49805 C 281.19313 151.08569 283.43378 151.2034 285.4668 151.79297 C 287.49969 152.38254 289.32629 153.44236 290.74023 154.62109 C 292.1543 155.79982 293.1554 157.09621 295.45312 156.77148 C 297.75098 156.44675 301.3451 154.50275 303.84961 153.32422 C 306.35413 152.14569 307.7684 151.73386 309.33008 151.46875 C 310.89176 151.20365 312.60083 151.08586 314.10352 151.08594 C 315.60609 151.08602 316.90211 151.20295 317.01953 148.02148 C 317.13695 144.84015 316.07641 138.35942 314.63281 132.11328 C 313.18921 125.86726 311.3638 119.8552 309.1543 113.99219 C 306.94466 108.12904 304.3507 102.41287 301.02148 96.373047 C 297.69239 90.333175 293.62722 83.969519 291.56445 80.375 C 289.50181 76.780481 289.443 75.956566 289.06055 75.396484 C 288.6781 74.836414 287.97024 74.542066 285.99609 72.568359 C 284.02207 70.594651 280.78053 66.941427 278.86523 64.496094 C 276.95007 62.050748 276.36126 60.813308 275.625 60.046875 C 274.88874 59.280441 274.00528 58.984694 273.50391 58.513672 C 273.00254 58.042636 272.88467 57.394423 272.11914 56.775391 C 271.35361 56.156346 269.94021 55.568226 268.4375 54.507812 C 266.93479 53.447411 265.34299 51.915136 263.04492 50 C 260.74686 48.084864 257.74224 45.786387 252.52734 42.457031 C 247.31256 39.127688 239.88755 34.767618 234.87891 32.380859 C 229.87014 29.994113 227.27661 29.580688 225.44922 30.494141 C 223.62184 31.407595 222.56213 33.646884 222.23828 35.591797 C 221.91442 37.53671 222.32588 39.187566 225.06641 41.308594 C 227.80677 43.429621 232.87587 46.022195 238.26758 49.351562 C 243.65916 52.680941 249.37475 56.745963 254.29492 60.576172 C 259.21522 64.40638 263.33856 68.0003 268.43555 73.833984 C 273.53241 79.66768 279.60349 87.741933 284.14062 94.371094 C 288.67787 101.00021 291.68197 106.18442 294.06836 111.25195 C 296.45475 116.31961 298.22319 121.27011 299.19531 124.6582 C 300.16747 128.04641 300.34446 129.87367 299.10742 130.9043 C 297.87038 131.93493 295.2171 132.17023 289.23633 132.11133 C 283.25543 132.05243 273.9452 131.69823 268.40625 130.75586 C 262.86729 129.8135 261.09976 128.28102 259.74414 126.21875 C 258.38852 124.15648 257.44694 121.56419 257.21094 118.85352 C 256.97494 116.14272 257.44641 113.31524 259.56836 112.19531 C 261.69032 111.07537 265.46074 111.66448 267.3457 111.51758 C 269.2308 111.37069 269.23131 110.4872 268.25977 109.69141 C 267.28809 108.89563 265.3431 108.18701 263.72266 107.18555 C 262.10208 106.18409 260.80466 104.88757 260.21484 103.70898 C 259.62502 102.53053 259.7444 101.47113 260.6582 100.79297 C 261.57199 100.1148 263.28021 99.819281 263.42773 99.230469 C 263.57524 98.641645 262.16069 97.758143 261.48242 96.638672 C 260.80416 95.519202 260.86352 94.163556 260.36328 93.25 C 259.86304 92.336444 258.80138 91.866199 258.09375 90.599609 C 257.38613 89.333032 257.03405 87.269519 256.50391 85.53125 C 255.97378 83.792982 255.26703 82.379466 254.64844 81.701172 C 254.02986 81.022878 253.49926 81.08099 253.02734 82.230469 C 252.55541 83.379948 252.14165 85.620412 251.61133 87.181641 C 251.081 88.742857 250.43266 89.626388 249.81445 90.097656 C 249.19623 90.568938 248.60762 90.62792 248.57812 91.041016 C 248.54872 91.4541 249.07826 92.219123 249.72656 92.601562 C 250.37485 92.984013 251.14148 92.984902 251.43555 93.515625 C 251.72962 94.046348 251.5524 95.107007 250.875 95.960938 C 250.1976 96.814855 249.01949 97.461897 248.37109 98.582031 C 247.72269 99.702165 247.60592 101.29419 246.75195 102.20703 C 245.89797 103.11988 244.3062 103.35556 243.7168 103.91602 C 243.12739 104.47648 243.53983 105.35925 244.74805 105.83008 C 245.95626 106.30091 247.95944 106.36102 249.60938 106.41992 C 251.25919 106.47882 252.55653 106.53786 252.61523 106.77344 C 252.67393 107.00901 251.49431 107.42193 250.10938 108.45312 C 248.72432 109.48443 247.13415 111.13425 246.2207 112.22461 C 245.30724 113.31497 245.07165 113.84497 245.7793 114.02148 C 246.48695 114.19798 248.13664 114.02078 249.28516 113.04883 C 250.43369 112.07688 251.08204 110.30995 251.70117 110.01562 C 252.3203 109.72143 252.90993 110.89826 252.67383 112.72461 C 252.43773 114.55095 251.37684 117.02608 250.69922 119.29492 C 250.02161 121.56376 249.72596 123.6268 248.75391 125.12891 C 247.78185 126.6309 246.13246 127.57444 244.07031 128.22266 C 242.00816 128.87088 239.53306 129.22349 237.44141 128.63477 C 235.34964 128.04605 233.64013 126.51388 232.37305 125.07031 C 231.10596 123.62673 230.28166 122.27163 229.92773 118.79492 C 229.5738 115.31833 229.69257 109.72024 230.19336 104.97656 C 230.69416 100.233 231.57799 96.343175 232.99219 91.953125 C 234.4064 87.563075 236.35087 82.67229 237.5 78.400391 C 238.64914 74.128478 239.00177 70.47644 238.58984 68.060547 C 238.17791 65.64464 236.99955 64.464954 235.05469 64.552734 C 233.10983 64.640504 230.39904 65.99668 227.89453 67.617188 C 225.39002 69.237683 223.0928 71.122945 221.11914 72.183594 C 219.14548 73.244243 217.49437 73.4792 215.81445 75.394531 C 214.13454 77.309862 212.42656 80.904665 211.21875 82.966797 C 210.01094 85.02893 209.30427 85.55934 208.59766 85.736328 C 207.89106 85.913317 207.18273 85.737002 207.44727 84.941406 C 207.71181 84.14581 208.95046 82.730813 210.12891 80.904297 C 211.30737 79.077781 212.4264 76.839781 213.01562 74.71875 C 213.60497 72.597718 213.66476 70.593197 213.13477 68.589844 C 212.60479 66.58649 211.4838 64.583803 210.95312 60.8125 C 210.42257 57.041198 210.48276 51.501665 211.13086 46.375 C 211.77896 41.248335 213.01595 36.534098 213.63477 32.880859 C 214.25359 29.227634 214.25253 26.636139 214.10547 24.986328 C 213.95841 23.336517 213.66539 22.628799 210.57227 21.332031 C 207.47902 20.035275 201.58488 18.148641 198.31445 17.058594 C 195.04416 15.968547 194.39705 15.675619 194.39648 19.830078 C 194.39591 23.984536 195.04296 32.586279 195.39648 40.511719 C 195.75 48.437159 195.80905 55.68641 195.39648 61.107422 C 194.98391 66.528421 194.10054 70.121642 193.24609 73.15625 C 192.39165 76.190858 191.5671 78.667137 191.41992 82.939453 C 191.27274 87.211769 191.80287 93.27927 191.80273 97.138672 C 191.80259 100.99812 191.27315 102.64883 190.625 104.00391 C 189.97685 105.35887 189.21031 106.42012 188.97461 105.97852 C 188.7389 105.53691 189.03211 103.59158 189.20898 100.82227 C 189.38584 98.052797 189.44509 94.45964 189.12109 90.511719 C 188.7971 86.563797 188.09149 82.261143 187.79688 77.517578 C 187.50214 72.774014 187.61937 67.588419 187.91406 67.146484 C 188.20876 66.704563 188.67979 71.005788 189.26953 73.185547 C 189.85927 75.365307 190.56593 75.424308 191.44922 71.447266 C 192.33252 67.470225 193.39406 59.45771 193.80664 53.771484 C 194.21922 48.085271 193.98229 44.726545 193.59961 43.105469 C 193.21692 41.484381 192.68811 41.600914 192.24609 41.71875 C 191.80407 41.836585 191.45035 41.955317 191.30273 38.332031 C 191.1551 34.708758 191.21258 27.343149 191.27148 22.599609 C 191.33038 17.856082 191.39052 15.734847 190.97852 14.703125 C 190.56652 13.671402 189.68153 13.730326 188.29688 12.611328 C 186.91214 11.49228 185.0275 9.1939875 184.02539 7.6914062 C 183.02329 6.1888263 182.90555 5.4810545 182.22852 4.7148438 C 181.55136 3.9486317 180.31256 3.1245428 179.72266 2.5058594 C 179.13276 1.887176 179.1924 1.47468 178.89844 1.1503906 C 178.60447 0.8261019 177.9557 0.58903603 177.16016 0.41210938 C 176.86183 0.34576179 176.54397 0.28913061 176.18555 0.296875 z M 150.90039 37.458984 C 150.92715 37.459856 150.9541 37.468099 150.98242 37.484375 C 151.20898 37.614587 151.48007 38.229761 151.70898 39.208984 C 152.16682 41.167432 152.45768 44.583929 152.35352 46.5 C 152.24935 48.416071 151.74935 48.832773 151.29102 46.875 C 150.83268 44.917227 150.41682 40.58472 150.52148 38.667969 C 150.56728 37.829391 150.71305 37.452885 150.90039 37.458984 z M 141.53125 42.869141 C 141.74044 42.889431 142.0349 43.751447 142.4375 45.521484 C 143.1246 48.542354 144.12512 54.209735 144.5625 58.042969 C 144.99988 61.876204 144.8744 63.876016 144.5625 64.833984 C 144.2506 65.791952 143.7511 65.707828 143.14648 63.8125 C 142.54185 61.917173 141.83409 58.209691 141.45898 54.230469 C 141.08386 50.251247 141.04182 46.001932 141.20898 44.064453 C 141.27168 43.337901 141.3636 42.935545 141.49023 42.876953 C 141.50343 42.870853 141.51735 42.867741 141.53125 42.869141 z M 153.6582 57.431641 C 153.98763 57.577064 154.54356 58.708121 155.54492 62.207031 C 156.88007 66.872255 159.0098 75.746292 160.88477 83.558594 C 162.75965 91.370895 164.37982 98.122552 165.33594 102.41602 C 166.29205 106.7094 166.58408 108.54244 166.70898 111.02148 C 166.83389 113.50061 166.79143 116.62686 166.5 117.50195 C 166.20857 118.37705 165.66809 117.00078 163.85547 110.14648 C 162.04285 103.29226 158.95905 90.958987 156.95898 81.833984 C 154.959 72.70899 154.0424 66.793662 153.58398 63.126953 C 153.12556 59.460244 153.12511 58.04171 153.39648 57.5625 C 153.46433 57.442697 153.5484 57.383163 153.6582 57.431641 z M 146.82031 83.695312 C 146.83471 83.692822 146.84848 83.692922 146.86328 83.695312 C 147.10026 83.734382 147.38628 84.406614 147.64648 85.771484 C 148.1669 88.501247 148.58359 94.000681 148.45898 96.333984 C 148.33438 98.667299 147.66772 97.834659 147.14648 95.105469 C 146.62525 92.376268 146.24958 87.751835 146.375 85.417969 C 146.4338 84.323964 146.6041 83.732738 146.82031 83.695312 z M 148.72266 109.72266 C 148.81216 109.71266 148.90621 109.77066 149 109.875 C 149.37516 110.29231 149.74955 111.46046 149.91602 113.56445 C 150.08248 115.66855 150.04167 118.70882 149.75 120.5 C 149.45833 122.29118 148.91665 122.83351 148.5625 120.89648 C 148.20835 118.95956 148.04231 114.54351 148.14648 112.16797 C 148.22458 110.38631 148.45403 109.75171 148.72266 109.72266 z M 219.60938 223.19531 C 223.62005 223.20705 227.47471 223.35942 227.89648 223.6875 C 228.45884 224.12494 222.91786 224.87494 217.91797 225.25 C 212.918 225.62506 208.46013 225.62581 206.23047 225.35547 C 204.00081 225.08513 204 224.54282 204 224.27148 C 204 224.00015 204.00082 224.0007 205.66797 223.83398 C 207.33511 223.66727 210.66785 223.33263 215.66797 223.22852 C 216.918 223.20249 218.27246 223.1914 219.60938 223.19531 z M 152.53711 236.14453 C 154.87888 236.12112 157.82446 236.20265 159.66797 236.8125 C 162.126 237.62562 162.62612 239.37567 162.54297 239.70898 C 162.45977 240.04229 161.79288 238.95892 159.54297 238.4375 C 157.29307 237.91608 153.45922 237.95902 151.64648 238.23047 C 149.83381 238.50192 150.04181 239.00133 150.25 239.79297 C 150.4582 240.58462 150.66743 241.66869 150.77148 245.56445 C 150.87554 249.46027 150.87574 256.16676 150.52148 261.125 C 150.16723 266.08323 149.45829 269.29154 148.9375 273 C 148.41671 276.70847 148.08337 280.91668 147.5625 285.25 C 147.04163 289.58333 146.3339 294.04226 145.89648 293.70898 C 145.45906 293.3757 145.29108 288.25137 145.54102 282.66797 C 145.79096 277.0845 146.45901 271.04299 147.08398 266.60547 C 147.70896 262.16788 148.29156 259.33449 148.375 254.54297 C 148.4584 249.75139 148.04184 243.00053 147.95898 239.625 C 147.87608 236.24947 148.12573 236.25001 150.45898 236.1875 C 151.04231 236.17188 151.75652 236.15234 152.53711 236.14453 z M 135 238.89258 C 135.16668 238.91082 135.33422 239.01017 135.45898 239.1875 C 135.70851 239.54217 135.79243 240.20996 136.16797 240.66797 C 136.54351 241.12598 137.21012 241.37461 137.98047 243.8125 C 138.75081 246.2504 139.62514 250.87577 139.9375 255.27148 C 140.24986 259.66725 140.00055 263.83456 139.64648 264.73047 C 139.29245 265.62639 138.83341 263.25074 138.4375 259.70898 C 138.04159 256.16729 137.70807 251.45894 137 248.08398 C 136.29194 244.70908 135.20936 242.66748 134.70898 241.33398 C 134.20861 240.00054 134.29236 239.37602 134.54297 239.08398 C 134.66827 238.93797 134.83332 238.87433 135 238.89258 z M 164.65039 246.20898 C 165.01589 246.17377 165.65659 247.04525 166.875 250.66797 C 168.37458 255.12666 170.74952 263.75206 171.91602 270.06445 C 173.08247 276.37689 173.04151 280.3769 172.5 280.43945 C 171.95849 280.50201 170.91739 276.62633 170.02148 272.35547 C 169.12562 268.08457 168.37419 263.41792 167.41602 259.48047 C 166.4578 255.54297 165.29254 252.3341 164.70898 250.14648 C 164.12543 247.95891 164.1244 246.79319 164.4375 246.35547 C 164.49621 246.2734 164.56604 246.21711 164.65039 246.20898 z M 156.44531 266.375 C 156.547 266.35062 156.62367 267.31376 156.6875 269.4375 C 156.83341 274.29177 156.91608 285.20966 156.54102 294.35547 C 156.16595 303.50127 155.3339 310.87562 154.83398 313.20898 C 154.33407 315.54238 154.16605 312.83406 154.10352 308.89648 C 154.04098 304.95894 154.08336 299.79306 154.4375 292.60547 C 154.79164 285.41788 155.45902 276.20837 155.89648 271 C 156.14256 268.07028 156.31457 266.40634 156.44531 266.375 z M 172.86719 285.02148 C 173.09514 284.98269 173.18605 285.34892 173.08398 286.85547 C 172.95837 288.70968 172.54232 292.2927 171.83398 294.70898 C 171.12566 297.12528 170.12437 298.37465 169.97852 296.8125 C 169.83267 295.25035 170.54096 290.87605 171.16602 288.39648 C 171.79106 285.91693 172.33275 285.33423 172.6875 285.10547 C 172.75401 285.06258 172.81458 285.03044 172.86719 285.02148 z M 166.88867 301.98633 C 167.03598 301.98297 167.17006 302.05446 167.27148 302.1875 C 167.54194 302.54227 167.58409 303.33472 167.20898 305.98047 C 166.83388 308.62622 166.04225 313.12494 165.64648 313.5 C 165.25072 313.87506 165.25007 310.12574 165.375 307.52148 C 165.49993 304.91724 165.74952 303.4588 166.125 302.6875 C 166.35967 302.20544 166.64316 301.99192 166.88867 301.98633 z M 189.98633 303.76367 C 190.45324 303.74 191.03926 304.87237 191.625 306.79297 C 192.37475 309.25133 193.12455 313.00151 193.41602 315.23047 C 193.70748 317.45943 193.5406 318.16647 192.66602 317.1875 C 191.79144 316.20853 190.20807 313.54313 189.54102 310.73047 C 188.87396 307.91781 189.12459 304.96016 189.625 304.06445 C 189.73447 303.86852 189.85559 303.7703 189.98633 303.76367 z " />
    <path
       style="display:inline;opacity:1;fill:#ffffff;fill-opacity:1;stroke:#000000;stroke-opacity:1;stroke-width:1;stroke-dasharray:none"
       d="m 21.563001,140.438 c 0.770588,-1.22983 2.978918,-2.6465 5.104195,-3.56316 2.125276,-0.91667 4.1669,-1.33333 6.708803,-1.16643 2.541902,0.16689 5.583509,0.91688 6.666155,2.91711 1.082646,2.00022 0.207663,5.25016 -1.709041,11.56273 -1.916703,6.31256 -4.874976,15.68737 -7.58334,23.31237 -2.708364,7.62499 -5.166647,13.49988 -6.166263,16.93774 -0.999615,3.43786 -0.541291,4.43785 1.938217,5.35402 2.479509,0.91618 6.979419,1.7495 10.437616,1.97849 3.458197,0.22899 5.874815,-0.146 7.957892,-0.8752 2.083078,-0.7292 3.833042,-1.81251 4.52034,-1.02031 0.687299,0.7922 0.312307,3.45881 -1.229344,6.25011 -1.541652,2.79129 -4.249932,5.7079 -6.832688,6.87468 -2.582756,1.16678 -5.041039,0.58346 -9.395265,-0.49988 -4.354226,-1.08334 -10.604101,-2.66664 -16.208361,-3.7084 C 10.167657,203.7501 5.2094231,203.25011 2.9171163,202.62525 0.6248095,202.00038 0.9998,201.2504 1.6249212,200.45851 c 0.6251213,-0.79188 1.5001054,-1.6252 2.6250352,-3.02094 1.1249298,-1.39574 2.4999051,-3.35404 4.1248909,-6.79142 1.6249858,-3.43738 3.4999457,-8.35394 5.7499767,-14.91649 2.250032,-6.56254 4.87498,-14.77071 6.270887,-20.37475 1.395907,-5.60403 1.56257,-8.60397 1.312961,-10.6247 -0.249609,-2.02074 -0.916259,-3.06238 -0.145671,-4.29221 z"
       id="path2592"
       inkscape:path-effect="#path-effect2594"
       inkscape:original-d="m 20.125,140.625 c 2.209333,-1.41567 4.417667,-2.83233 6.625,-4.25 2.042707,-0.41568 4.084333,-0.83233 6.125,-1.25 3.042727,0.75101 6.084333,1.501 9.125,2.25 -0.874018,3.25106 -1.749,6.501 -2.625,9.75 -2.957393,9.37619 -5.915667,18.751 -8.875,28.125 -2.457383,5.87612 -4.915667,11.751 -7.375,17.625 0.459342,1.00102 0.917667,2.001 1.375,3 4.50109,0.83435 9.001,1.66767 13.5,2.5 2.417715,-0.37401 4.834333,-0.749 7.25,-1.125 1.751035,-1.08236 3.501,-2.16567 5.25,-3.25 -0.374008,2.66772 -0.749,5.33433 -1.125,8 -2.707388,2.91772 -5.415667,5.83433 -8.125,8.75 -2.457383,-0.58235 -4.915667,-1.16567 -7.375,-1.75 -6.249125,-1.58237 -12.499,-3.16567 -18.75,-4.75 -4.957433,-0.49901 -9.9156667,-0.999 -14.875,-1.5 0.3760075,-0.74902 0.751,-1.499 1.125,-2.25 0.8760175,-0.83235 1.751,-1.66567 2.625,-2.5 1.3760275,-1.95737 2.751,-3.91567 4.125,-5.875 1.876037,-4.91577 3.751,-9.83233 5.625,-14.75 2.626052,-8.2075 5.251,-16.41567 7.875,-24.625 0.16767,-2.99906 0.334333,-5.999 0.5,-9 -0.66568,-1.04069 -1.332333,-2.08233 -2,-3.125 z" />
    <path
       id="path2704"
       style="display:inline;opacity:1;fill:#ffffff;fill-opacity:1;stroke:#000000;stroke-opacity:1;stroke-width:1;stroke-dasharray:none"
       d="M 83.761719 155.125 C 82.704372 155.13771 81.589944 155.23573 80.417969 155.4375 C 76.667647 156.08315 72.334862 157.79095 69.480469 159.16602 C 66.626075 160.54108 65.250704 161.58275 64.583984 162.5625 C 63.917264 163.54225 63.957755 164.45928 63.5625 164.77148 C 63.167245 165.08368 62.334027 164.79174 60.9375 166.25 C 59.540973 167.70826 57.584001 170.91642 56.271484 173.9375 C 54.958967 176.95858 54.292239 179.79151 53.958984 182.9375 C 53.62573 186.08349 53.62472 189.54283 54.1875 192.48047 C 54.75028 195.4181 55.875329 197.83487 57.958984 199.91797 C 60.042639 202.00106 63.085346 203.75097 66.814453 204.64648 C 70.54356 205.542 74.959887 205.58279 78.605469 204.91602 C 82.25105 204.24924 85.124524 202.87492 87.603516 201.1875 C 90.082507 199.50008 92.166677 197.50083 93.25 195.48047 C 94.333323 193.4601 94.415742 191.41792 93.541016 190.77148 C 92.66629 190.12505 90.834511 190.87561 88.105469 191.58398 C 85.376427 192.29236 81.75048 192.95741 78.771484 192.91602 C 75.792489 192.87462 73.459633 192.12473 72.333984 191.0625 C 71.208336 190.00027 71.291885 188.62555 72.833984 187.6875 C 74.376084 186.74945 77.376475 186.25004 80.917969 185 C 84.459462 183.74996 88.541251 181.74917 91.353516 179.66602 C 94.16578 177.58286 95.708314 175.41702 96.6875 172.95898 C 97.666686 170.50095 98.083029 167.75114 97.9375 165.48047 C 97.791971 163.2098 97.083002 161.4182 95.75 159.85547 C 94.416998 158.29274 92.45902 156.95931 89.896484 156.08398 C 88.134741 155.48219 86.087881 155.09705 83.761719 155.125 z M 80.597656 162.66016 C 80.73681 162.66081 80.87821 162.66922 81.021484 162.6875 C 82.167677 162.83377 83.460296 163.54155 83.917969 165.1875 C 84.375642 166.83345 84.000617 169.41836 83.021484 171.54297 C 82.042351 173.66758 80.458025 175.33279 78.875 176.41602 C 77.291975 177.49924 75.70807 177.99977 74.375 178.125 C 73.04193 178.25023 71.959008 178.00054 72 176.27148 C 72.040992 174.54243 73.208297 171.33352 74.375 168.9375 C 75.541703 166.54148 76.707362 164.95918 77.791016 163.95898 C 78.739213 163.08382 79.623579 162.65559 80.597656 162.66016 z " />
    <path
       style="display:inline;opacity:1;fill:#ffffff;fill-opacity:1;stroke:#000000;stroke-opacity:1;stroke-width:1;stroke-dasharray:none"
       d="m 110.47934,159.85408 c 2.02104,-1.39594 4.77104,-2.81261 8.33388,-3.58336 3.56284,-0.77075 7.93775,-0.89575 11.70872,0.0213 3.77096,0.91707 6.93756,2.87536 8.62456,4.58391 1.687,1.70854 1.89533,3.16685 1.12437,4.87467 -0.77096,1.70782 -2.52092,3.66612 -4.18712,4.70772 -1.6662,1.0416 -3.2495,1.1666 -4.62469,5.5e-4 -1.37518,-1.16606 -2.54182,-3.62434 -4.39575,-5.02071 -1.85392,-1.39636 -4.39553,-1.72969 -5.7503,-1.16681 -1.35478,0.56287 -1.52144,2.02118 -1.0626,3.3963 0.45885,1.37511 1.54216,2.66675 3.91735,4.20819 2.37518,1.54144 6.04177,3.33307 8.58325,5.25003 2.54148,1.91697 3.95811,3.95859 4.87449,6.12528 0.91638,2.16669 1.33304,4.45831 0.83282,7.02047 -0.50022,2.56216 -1.91685,5.39544 -4.16667,7.85352 -2.24982,2.45808 -5.3331,4.54137 -9.43692,5.54145 -4.10381,1.00008 -9.22871,0.91675 -13.20781,0.27115 -3.9791,-0.64559 -6.81238,-1.8539 -8.7917,-3.10364 -1.97931,-1.24974 -3.104292,-2.54138 -3.813002,-4.10386 -0.708711,-1.56249 -1.000372,-3.39579 -0.708193,-4.18785 0.292179,-0.79206 1.167164,-0.54206 1.583263,-0.81255 0.416102,-0.27048 0.374432,-1.06213 0.895262,-1.97934 0.52082,-0.91722 1.60414,-1.95886 2.79201,-2.62561 1.18787,-0.66674 2.47951,-0.9584 3.77115,0.0631 1.29164,1.02154 2.58328,3.35483 4.02105,5.04212 1.43776,1.6873 3.02106,2.72895 4.81251,2.97847 1.79145,0.24952 3.79141,-0.29214 4.72861,-1.43737 0.93719,-1.14522 0.8122,-2.89518 -1.79149,-5.52036 -2.60368,-2.62517 -7.68691,-6.1251 -10.70808,-9.04158 -3.02117,-2.91648 -3.97948,-5.24977 -4.06315,-7.68759 -0.0837,-2.43781 0.70798,-4.97942 1.74974,-6.93807 1.04176,-1.95865 2.3334,-3.33362 4.35444,-4.72957 z"
       id="path2712"
       inkscape:path-effect="#path-effect2714"
       inkscape:original-d="m 109.75,159.875 c 2.751,-1.41567 5.501,-2.83233 8.25,-4.25 4.37609,-0.124 8.751,-0.249 13.125,-0.375 3.16773,1.95937 6.33433,3.91767 9.5,5.875 0.20934,1.45936 0.41767,2.91767 0.625,4.375 -1.74904,1.95937 -3.499,3.91767 -5.25,5.875 -1.58237,0.126 -3.16567,0.251 -4.75,0.375 -1.16569,-2.45738 -2.33233,-4.91567 -3.5,-7.375 -2.54072,-0.33234 -5.08233,-0.66567 -7.625,-1 -0.16567,1.45936 -0.33233,2.91767 -0.5,4.375 1.08435,1.29269 2.16767,2.58433 3.25,3.875 3.66774,1.7927 7.33433,3.58433 11,5.375 1.41769,2.04271 2.83433,4.08433 4.25,6.125 0.41767,2.29271 0.83433,4.58433 1.25,6.875 -1.4157,2.83439 -2.83233,5.66767 -4.25,8.5 -3.0824,2.08437 -6.16567,4.16767 -9.25,6.25 -5.1241,-0.0823 -10.249,-0.16567 -15.375,-0.25 -2.83239,-1.20736 -5.66567,-2.41567 -8.5,-3.625 -1.12402,-1.29069 -2.249,-2.58233 -3.375,-3.875 -0.290673,-1.83237 -0.582334,-3.66567 -0.875,-5.5 0.876017,0.251 1.751,0.501 2.625,0.75 -0.0407,-0.79068 -0.0823,-1.58233 -0.125,-2.375 1.08435,-1.04069 2.16767,-2.08233 3.25,-3.125 1.29269,-0.29067 2.58433,-0.58233 3.875,-0.875 1.29269,2.33438 2.58433,4.66767 3.875,7 1.58436,1.04269 3.16767,2.08433 4.75,3.125 2.00104,-0.54068 4.001,-1.08233 6,-1.625 -0.124,-1.74904 -0.249,-3.499 -0.375,-5.25 -5.08244,-3.49907 -10.16567,-6.999 -15.25,-10.5 -0.95735,-2.33238 -1.91567,-4.66567 -2.875,-7 0.79268,-2.54072 1.58433,-5.08233 2.375,-7.625 1.29269,-1.37403 2.58433,-2.749 3.875,-4.125 z" />
    <path
       style="display:inline;opacity:1;fill:#ffffff;fill-opacity:1;stroke:#000000;stroke-opacity:1;stroke-width:1;stroke-dasharray:none"
       d="m 142.66726,150.87569 c -1.00061,-1.91637 -0.95894,-5.08303 -0.66736,-7.24999 0.29157,-2.16695 0.83323,-3.33359 1.77079,-4.79209 0.93756,-1.4585 2.27086,-3.20846 4.33364,-4.79198 2.06278,-1.58352 4.85439,-3.00016 7.6464,-3.66671 2.79202,-0.66655 5.58363,-0.58322 10.77126,0.0627 5.18762,0.64592 12.77081,1.85423 20.18748,2.47914 7.41668,0.62491 14.66654,0.66658 18.79114,0.33317 4.12461,-0.33342 5.12459,-1.04174 5.95834,-1.08284 0.83376,-0.0411 1.50041,0.58388 1.66649,1.91716 0.16609,1.33327 -0.16724,3.3749 -1.33391,5.66625 -1.16667,2.29135 -3.16663,4.83296 -4.68704,6.20782 -1.52041,1.37486 -2.56205,1.58319 -5.47856,1.06258 -2.91651,-0.52062 -7.70808,-1.77059 -10.06279,-1.8952 -2.35472,-0.12461 -2.27138,0.87538 -3.75071,7.89617 -1.47933,7.02079 -4.52093,20.06219 -6.08336,28.56235 -1.56243,8.50017 -1.64576,12.45843 -1.43724,15.31271 0.20852,2.85429 0.70851,4.60426 -2.18708,5.62448 -2.89559,1.02022 -9.18713,1.31188 -12.39602,1.72894 -3.2089,0.41706 -3.3339,0.95871 -4.1874,0.85446 -0.8535,-0.10426 -2.4368,-0.85424 -3.22906,-1.83321 -0.79227,-0.97896 -0.79227,-2.18727 0.0618,-5.18753 0.85408,-3.00026 2.56238,-7.79183 5.08327,-17.4169 2.52088,-9.62506 5.85415,-24.08311 6.66724,-31.35428 0.81309,-7.27117 -0.89521,-7.35451 -3.35361,-7.35454 -2.45841,-4e-5 -5.66668,0.0833 -8.10468,0.95832 -2.438,0.87503 -4.10463,2.54166 -5.79221,4.54177 -1.68759,2.00012 -3.39589,4.3334 -5.27024,5.16684 -1.87436,0.83343 -3.91598,0.16678 -4.91659,-1.74959 z"
       id="path2716"
       inkscape:path-effect="#path-effect2718"
       inkscape:original-d="m 141.625,152.125 c 0.0427,-3.16567 0.0843,-6.33233 0.125,-9.5 0.54268,-1.16569 1.08433,-2.33233 1.625,-3.5 1.33436,-1.74904 2.66767,-3.499 4,-5.25 2.79272,-1.4157 5.58433,-2.83233 8.375,-4.25 2.79272,0.0843 5.58433,0.16767 8.375,0.25 7.58448,1.20936 15.16767,2.41767 22.75,3.625 7.25114,0.0427 14.501,0.0843 21.75,0.125 1.00102,-0.70735 2.001,-1.41567 3,-2.125 0.66768,0.62601 1.33433,1.251 2,1.875 -0.33234,2.04271 -0.66567,4.08433 -1,6.125 -1.99904,2.54272 -3.999,5.08433 -6,7.625 -1.04069,0.20934 -2.08233,0.41767 -3.125,0.625 -4.79076,-1.24903 -9.58233,-2.499 -14.375,-3.75 0.0843,1.00102 0.16767,2.001 0.25,3 -3.04073,13.04293 -6.08233,26.08433 -9.125,39.125 -0.0823,3.95941 -0.16567,7.91767 -0.25,11.875 0.50101,1.75103 1.001,3.501 1.5,5.25 -6.29079,0.29267 -12.58233,0.58433 -18.875,0.875 -0.124,0.54268 -0.249,1.08433 -0.375,1.625 -1.58237,-0.74902 -3.16567,-1.499 -4.75,-2.25 0.001,-1.20736 0.001,-2.41567 0,-3.625 1.70937,-4.79076 3.41767,-9.58233 5.125,-14.375 3.3344,-14.45762 6.66767,-28.91567 10,-43.375 -1.70737,-0.0823 -3.41567,-0.16567 -5.125,-0.25 -3.2074,0.0843 -6.41567,0.16767 -9.625,0.25 -1.6657,1.6677 -3.33233,3.33433 -5,5 -1.70737,2.33438 -3.41567,4.66767 -5.125,7 -2.04071,-0.66568 -4.08233,-1.33233 -6.125,-2 z" />
    <path
       id="path2720"
       style="display:inline;opacity:1;fill:#ffffff;fill-opacity:1;stroke:#000000;stroke-opacity:1;stroke-width:1;stroke-dasharray:none"
       d="M 226.43555 154.44727 C 225.08187 154.45821 223.71887 154.59575 222.375 154.85352 C 218.79134 155.54089 215.3335 157.08263 212.3125 158.79102 C 209.2915 160.4994 206.70918 162.37413 204.33398 165.04102 C 201.95879 167.7079 199.79233 171.16703 198.33398 174.89648 C 196.87564 178.62594 196.12543 182.62676 196.14648 186.18945 C 196.16754 189.75215 196.95948 192.87691 197.85547 195.43945 C 198.75146 198.00199 199.75099 200.00093 201.16797 201.45898 C 202.58494 202.91704 204.41802 203.83489 207.04297 204.41797 C 209.66792 205.00105 213.08409 205.25076 216.39648 205.08398 C 219.70888 204.91721 222.91816 204.33401 225.91797 203.27148 C 228.91778 202.20896 231.70785 200.66721 234.54102 198.33398 C 237.37418 196.00075 240.2507 192.87474 242.20898 189.6875 C 244.16727 186.50026 245.20759 183.24985 245.79102 179.625 C 246.37444 176.00015 246.50093 172.00189 245.85547 168.81445 C 245.21 165.62702 243.79211 163.25216 241.58398 161.00195 C 239.37586 158.75175 236.37572 156.6267 233.02148 155.48047 C 230.92509 154.76407 228.69167 154.42902 226.43555 154.44727 z M 225.68555 163.88086 C 226.11849 163.90635 226.53255 164.00113 226.91797 164.16797 C 228.45964 164.83533 229.54202 166.66804 230.0625 168.98047 C 230.58298 171.29289 230.54243 174.0835 229.52148 178.125 C 228.50054 182.1665 226.50049 187.4593 224.95898 190.52148 C 223.41748 193.58366 222.33364 194.41666 220.95898 194.9375 C 219.58433 195.45834 217.91668 195.66738 216.375 194.85547 C 214.83332 194.04356 213.41843 192.2104 212.79297 190.06445 C 212.16751 187.91851 212.3334 185.45914 213.0625 182.27148 C 213.7916 179.08383 215.08328 175.16756 216.5625 172.08398 C 218.04172 169.00041 219.70725 166.75018 221.54102 165.375 C 222.91634 164.34362 224.38671 163.8044 225.68555 163.88086 z " />
    <path
       style="display:inline;opacity:1;fill:#ffffff;fill-opacity:1;stroke:#000000;stroke-opacity:1;stroke-width:1;stroke-dasharray:none"
       d="m 250.47933,160.50027 c 0.81283,-1.04215 2.10449,-1.58381 3.33339,-2.54201 1.2289,-0.9582 2.39554,-2.33317 4.6045,-2.77062 2.20897,-0.43746 5.45891,0.0625 7.56277,1.47974 2.10386,1.41721 3.06217,3.7505 4.43697,4.10402 1.37479,0.35352 3.16642,-1.27144 5.39587,-2.5632 2.22946,-1.29176 4.89607,-2.25007 7.04223,-2.4998 2.14616,-0.24972 3.77113,0.2086 4.87482,1.89654 1.10369,1.68793 1.68702,4.60454 1.45763,7.04167 -0.22939,2.43713 -1.27104,4.39542 -2.58341,6.04105 -1.31238,1.64562 -2.89568,2.97893 -4.39518,3.1252 -1.49949,0.14628 -2.91612,-0.89536 -3.79153,-2.04103 -0.87542,-1.14568 -1.20874,-2.39565 -1.89591,-3.02124 -0.68717,-0.62559 -1.72881,-0.62559 -3.08357,0.58287 -1.35475,1.20846 -3.02139,3.62508 -4.64643,7.52119 -1.62504,3.89611 -3.20834,9.271 -4.02075,13.91704 -0.81241,4.64604 -0.85407,8.56263 -1.72861,10.56211 -0.87454,1.99949 -2.58284,2.08282 -5.45789,2.27031 -2.87506,0.1875 -6.91664,0.47916 -9.27097,-0.0411 -2.35434,-0.52021 -3.02099,-1.85352 -2.62554,-3.93729 0.39544,-2.08377 1.85375,-4.91705 3.43711,-9.75029 1.58336,-4.83323 3.29166,-11.66643 4.0418,-16.22877 0.75013,-4.56233 0.5418,-6.85395 -0.31194,-7.9795 -0.85375,-1.12556 -2.35372,-1.08389 -2.93761,-1.83352 -0.5839,-0.74963 -0.25058,-2.29126 0.56225,-3.33341 z"
       id="path2728"
       inkscape:path-effect="#path-effect2730"
       inkscape:original-d="m 250,160 c 1.29267,-0.54067 2.58433,-1.08233 3.875,-1.625 1.16769,-1.37403 2.33433,-2.749 3.5,-4.125 3.25106,0.50101 6.501,1.001 9.75,1.5 0.95935,2.33438 1.91767,4.66767 2.875,7 1.7927,-1.62403 3.58433,-3.249 5.375,-4.875 2.66772,-0.95735 5.33433,-1.91567 8,-2.875 1.62603,0.45934 3.251,0.91767 4.875,1.375 0.58434,2.91772 1.16767,5.83433 1.75,8.75 -1.04069,1.95937 -2.08233,3.91767 -3.125,5.875 -1.58237,1.33436 -3.16567,2.66767 -4.75,4 -1.4157,-1.04069 -2.83233,-2.08233 -4.25,-3.125 -0.33234,-1.24903 -0.66567,-2.499 -1,-3.75 -1.04069,0.001 -2.08233,0.001 -3.125,0 -1.6657,2.41771 -3.33233,4.83433 -5,7.25 -1.58237,5.37611 -3.16567,10.751 -4.75,16.125 -0.0407,3.91774 -0.0823,7.83433 -0.125,11.75 -1.70737,0.0843 -3.41567,0.16767 -5.125,0.25 -4.04075,0.29267 -8.08233,0.58433 -12.125,0.875 -0.66568,-1.33236 -1.33233,-2.66567 -2,-4 1.45936,-2.83239 2.91767,-5.66567 4.375,-8.5 1.70937,-6.83247 3.41767,-13.66567 5.125,-20.5 -0.20734,-2.29071 -0.41567,-4.58233 -0.625,-6.875 -1.49903,0.0427 -2.999,0.0843 -4.5,0.125 0.33434,-1.5407 0.66767,-3.08233 1,-4.625 z" />
    <path
       id="path2732"
       style="display:inline;opacity:1;fill:#ffffff;fill-opacity:1;stroke:#000000;stroke-opacity:1;stroke-width:1;stroke-dasharray:none"
       d="M 312.76367 155.30469 C 309.95362 155.34861 307.33354 156.14842 305 157.1875 C 302.33309 158.37502 300.04185 159.8742 298 161.72852 C 295.95815 163.58283 294.16737 165.79087 292.52148 168.41602 C 290.8756 171.04116 289.37565 174.0838 288.14648 177.58398 C 286.91732 181.08416 285.95818 185.04273 285.6875 188.54297 C 285.41682 192.04321 285.83293 195.08399 286.875 197.52148 C 287.91707 199.95898 289.58515 201.79266 291.56445 203.02148 C 293.54375 204.25031 295.8349 204.87525 298.54297 204.6875 C 301.25104 204.49975 304.37469 203.49918 306.66602 202.04102 C 308.95734 200.58285 310.41734 198.6671 310.20898 200.77148 C 310.00062 202.87587 308.1254 209.00035 306.52148 212.4375 C 304.91757 215.87465 303.58371 216.62493 302.08398 217.0625 C 300.58426 217.50007 298.91736 217.62506 297.08398 216.39648 C 295.25061 215.16791 293.25135 212.58463 291.29297 211.45898 C 289.33459 210.33334 287.41693 210.66734 285.8125 211.20898 C 284.20807 211.75063 282.91755 212.49885 282.02148 214.35352 C 281.12541 216.20818 280.62443 219.16786 281.3125 221.54297 C 282.00057 223.91808 283.8756 225.7094 286.39648 226.77148 C 288.91737 227.83357 292.08479 228.16615 295.23047 227.97852 C 298.37615 227.79088 301.50088 227.08333 304.70898 225.625 C 307.91709 224.16667 311.20778 221.95891 313.85352 219.77148 C 316.49925 217.58406 318.50007 215.41584 320.4375 212.35352 C 322.37493 209.29119 324.25062 205.33387 326.14648 199.20898 C 328.04235 193.0841 329.95833 184.79183 331.8125 178.25 C 333.66667 171.70817 335.45885 166.91648 336.33398 163.5625 C 337.20911 160.20852 337.16625 158.29225 335 157.625 C 332.83375 156.95775 328.54218 157.54138 324.64648 157.1875 C 320.75079 156.83362 317.25161 155.54265 313.98047 155.33398 C 313.57158 155.3079 313.16511 155.29841 312.76367 155.30469 z M 314.9043 164.19922 C 316.42601 164.09092 317.63722 164.92171 318.16797 166.5625 C 318.87564 168.75022 318.37571 172.37639 317.39648 176.29297 C 316.41726 180.20954 314.95756 184.41632 313.35352 187.29102 C 311.74947 190.16571 310.00012 191.70752 308.08398 192.22852 C 306.16785 192.74951 304.08392 192.24968 303.0625 190.375 C 302.04108 188.50032 302.08278 185.2502 302.72852 181.8125 C 303.37425 178.3748 304.62424 174.7503 306.54102 171.5625 C 308.45779 168.3747 311.04234 165.62477 313.29297 164.625 C 313.85563 164.37506 314.39706 164.23532 314.9043 164.19922 z " />
    <path
       style="display:inline;opacity:1;fill:#ffffff;fill-opacity:1;stroke:#000000;stroke-opacity:1;stroke-width:1;stroke-dasharray:none"
       d="m 335.5627,193.14573 c 0.72897,-0.6874 2.02063,-1.97906 3.81285,-2.56237 1.79221,-0.5833 4.08383,-0.4583 6.06307,0.16707 1.97923,0.62537 3.64586,1.75035 4.49946,3.66716 0.8536,1.91682 0.89527,4.62509 -0.0213,6.62453 -0.91659,1.99943 -2.79155,3.29107 -5.22865,3.83284 -2.43711,0.54178 -5.43705,0.33345 -7.08327,-0.35351 -1.64622,-0.68696 -1.93788,-1.8536 -2.22963,-3.687 -0.29175,-1.8334 -0.58341,-4.33335 -0.64578,-5.62566 -0.0624,-1.29232 0.1043,-1.37566 0.83327,-2.06306 z"
       id="path2794"
       inkscape:path-effect="#path-effect2796"
       inkscape:original-d="m 335,193.75 c 1.29267,-1.29067 2.58433,-2.58233 3.875,-3.875 2.29271,0.126 4.58433,0.251 6.875,0.375 1.6677,1.12602 3.33433,2.251 5,3.375 0.0427,2.70939 0.0843,5.41767 0.125,8.125 -1.87404,1.29269 -3.749,2.58433 -5.625,3.875 -2.99906,-0.20734 -5.999,-0.41567 -9,-0.625 -0.29067,-1.16569 -0.58233,-2.33233 -0.875,-3.5 -0.29067,-2.49905 -0.58233,-4.999 -0.875,-7.5 0.16767,-0.0823 0.33433,-0.16567 0.5,-0.25 z" />
    <path
       style="display:inline;opacity:1;fill:#ffffff;fill-opacity:1;stroke:#000000;stroke-opacity:1;stroke-width:1;stroke-dasharray:none"
       d="m 220.64712,298.34067 c 0.32394,-1.17918 1.56138,-2.06307 4.33109,-3.35948 2.7697,-1.29641 7.07118,-3.00522 9.89993,-3.35825 2.82874,-0.35302 4.184,0.6487 5.06752,1.79794 0.88351,1.14925 1.29598,2.44558 1.82606,1.14898 0.53008,-1.29659 1.17825,-5.1856 4.21312,-9.16358 3.03487,-3.97798 8.45591,-8.04377 11.93277,-10.31244 3.47686,-2.26868 5.00889,-2.74007 5.77461,-3.62337 0.76572,-0.8833 0.76572,-2.17964 2.65144,-4.331 1.88571,-2.15136 5.65687,-5.15651 10.34136,-11.22574 4.68449,-6.06924 10.28231,-15.20252 15.67452,-20.29981 5.3922,-5.09729 10.57755,-6.15793 13.34678,-5.71532 2.76923,0.44261 3.12278,2.38712 2.769,4.56706 -0.35377,2.17993 -1.41441,4.59583 -3.18218,7.89562 -1.76778,3.29978 -4.24261,7.48342 -7.39514,12.19745 -3.15253,4.71404 -6.98261,9.95831 -9.95833,13.7295 -2.97572,3.77119 -5.097,6.06924 -6.89404,7.6012 -1.79703,1.53195 -3.27014,2.29796 -4.59624,3.53562 -1.3261,1.23766 -2.50459,2.94647 -4.21307,4.15425 -1.70848,1.20778 -3.9476,1.91487 -5.038,2.82885 -1.09041,0.91398 -1.03149,2.03354 -6.8651,5.89261 -5.83361,3.85908 -17.55956,10.45861 -24.42419,13.9647 -6.86464,3.50609 -8.86807,3.91856 -10.45919,2.77016 -1.59112,-1.14839 -2.7696,-3.85891 -3.65351,-5.95078 -0.88391,-2.09187 -1.47316,-3.56498 -1.14921,-4.74417 z"
       id="path2862"
       inkscape:path-effect="#path-effect2864"
       inkscape:original-d="m 219.73343,298.04551 c 1.23844,-0.88289 2.47588,-1.76677 3.71231,-2.65165 4.30265,-1.70788 8.60413,-3.41669 12.9047,-5.12653 1.35632,1.00276 2.71158,2.00447 4.06586,3.00521 0.41349,1.29739 0.82596,2.59372 1.23744,3.88908 0.6492,-3.88816 1.29736,-7.77717 1.94455,-11.66726 5.42226,-4.06494 10.8433,-8.13073 16.26345,-12.19759 1.5331,-0.47041 3.06513,-0.94181 4.5962,-1.41421 10e-4,-1.29539 10e-4,-2.59173 0,-3.88909 3.77231,-3.00426 7.54347,-6.00941 11.3137,-9.01561 5.59904,-9.13265 11.19686,-18.26593 16.79379,-27.40039 5.18655,-1.05968 10.3719,-2.12032 15.55635,-3.18198 0.35456,1.94558 0.70811,3.89009 1.06066,5.83363 -1.05968,2.417 -2.12032,4.8329 -3.18198,7.24785 -2.47392,4.18479 -4.94875,8.36843 -7.42462,12.55114 -3.82924,5.24548 -7.65933,10.48975 -11.49049,15.73313 -2.12036,2.29914 -4.24164,4.59719 -6.36396,6.89429 -1.47217,0.76705 -2.94528,1.53306 -4.41942,2.29809 -1.17753,1.70988 -2.35602,3.41869 -3.53553,5.12653 -2.23822,0.70812 -4.47734,1.41521 -6.71751,2.12132 0.0599,1.12061 0.11885,2.24017 0.17677,3.35876 -11.72542,6.60079 -23.45137,13.20032 -35.17856,19.79899 -2.00251,0.41348 -4.00594,0.82595 -6.01041,1.23743 -1.17753,-2.70963 -2.35602,-5.42015 -3.53553,-8.13173 -0.58827,-1.47216 -1.17751,-2.94527 -1.76777,-4.41941 z" />
    <path
       style="display:inline;opacity:1;fill:#ffffff;fill-opacity:1;stroke:#000000;stroke-opacity:1;stroke-width:1;stroke-dasharray:none"
       d="m 232.34457,239.00254 c 0.64814,-0.29505 2.76946,-0.23612 5.06764,0.64816 2.29818,0.88428 4.77301,2.59309 7.27725,3.32922 2.50424,0.73613 5.03798,0.50043 6.39291,0.91353 1.35494,0.4131 1.53171,1.47374 1.0012,2.94645 -0.53052,1.47271 -1.76793,3.35829 -1.91466,4.30098 -0.14672,0.94269 0.79607,0.94269 1.7092,1.91558 0.91313,0.9729 1.79699,2.9174 2.0913,5.45108 0.29431,2.53368 -3.1e-4,5.65667 -0.58919,6.45229 -0.58888,0.79562 -1.47275,-0.73642 -2.03261,-1.76761 -0.55987,-1.03118 -0.79557,-1.56151 -1.35506,-1.91555 -0.5595,-0.35404 -1.44337,-0.53081 -3.18169,-1.41447 -1.73832,-0.88365 -4.33099,-2.47461 -6.68829,-5.15553 -2.35729,-2.68091 -4.47857,-6.45207 -5.569,-8.98596 -1.09044,-2.53389 -1.14936,-3.83023 -1.59078,-4.80259 -0.44142,-0.97237 -1.26637,-1.62053 -0.61822,-1.91558 z"
       id="path2866"
       inkscape:path-effect="#path-effect2868"
       inkscape:original-d="m 230.87036,238.64854 c 2.12232,0.0599 4.24364,0.11885 6.36396,0.17677 2.47593,1.70988 4.95075,3.41869 7.42463,5.12653 2.53485,-0.23471 5.06859,-0.47041 7.60139,-0.70711 0.17778,1.06168 0.35456,2.12232 0.53033,3.18198 -1.23646,1.88666 -2.47387,3.77224 -3.71231,5.65686 0.94383,0.001 1.88662,0.001 2.82843,0 0.8849,1.94558 1.76877,3.89008 2.65165,5.83363 -0.29363,3.12412 -0.58826,6.24711 -0.88388,9.36916 -0.8829,-1.53109 -1.76677,-3.06313 -2.65165,-4.59619 -0.23471,-0.52934 -0.47041,-1.05966 -0.70711,-1.59099 -0.8829,-0.17578 -1.76677,-0.35256 -2.65165,-0.53033 -2.59178,-1.59002 -5.18445,-3.18098 -7.77818,-4.77297 -2.12036,-3.77031 -4.24164,-7.54147 -6.36396,-11.31371 -0.0579,-1.29539 -0.11685,-2.59173 -0.17677,-3.88909 -0.82398,-0.64719 -1.64892,-1.29536 -2.47488,-1.94454 z" />
    <path
       style="display:inline;opacity:1;fill:#ffffff;fill-opacity:1;stroke:#000000;stroke-opacity:1;stroke-width:1;stroke-dasharray:none"
       d="m 112.13562,242.0368 c -1.53162,-0.91357 -6.5403,0.32388 -10.07588,1.23722 -3.535575,0.91335 -5.597931,1.50259 -6.482223,1.12003 -0.884292,-0.38256 -0.58967,-1.73782 -1.149218,-2.03291 -0.559548,-0.29509 -1.973731,0.47092 -2.592595,2.35719 -0.618864,1.88628 -0.442091,4.89142 -1.090409,7.66057 -0.648319,2.76916 -2.12143,5.30291 -2.916855,7.86652 -0.795426,2.5636 -0.913275,5.15627 0.35371,5.30306 1.266986,0.14678 3.918582,-2.15127 6.599798,-4.21372 2.681215,-2.06246 5.391742,-3.88912 7.247692,-5.77449 1.85595,-1.88537 2.85767,-3.82988 4.00723,-4.92026 1.14955,-1.09039 2.44589,-1.32609 4.06588,-2.97583 1.62,-1.64975 3.5645,-4.71382 2.03287,-5.62738 z"
       id="path2870"
       inkscape:path-effect="#path-effect2872"
       inkscape:original-d="m 115.61196,239.88597 c -5.00767,1.23844 -10.01635,2.47588 -15.02602,3.71232 -2.061437,0.59026 -4.12379,1.17951 -6.187185,1.76776 0.295634,-1.35431 0.590256,-2.70957 0.883883,-4.06586 -1.413241,0.76705 -2.827427,1.53306 -4.24264,2.2981 0.17778,3.00626 0.354553,6.0114 0.53033,9.01561 -1.472169,2.53485 -2.945278,5.0686 -4.419417,7.60139 -0.116854,2.59378 -0.234703,5.18645 -0.353554,7.77818 2.652704,-2.29714 5.304301,-4.59519 7.954951,-6.89429 2.711631,-1.82573 5.422152,-3.65239 8.131732,-5.48008 1.00275,-1.94358 2.00447,-3.88809 3.0052,-5.83363 1.29739,-0.23471 2.59373,-0.4704 3.88909,-0.70711 1.94558,-3.06319 3.89008,-6.12726 5.83363,-9.19239 z" />
  </g>
</svg>
